<?xml version='1.0' encoding='utf-8'?>
<svg xmlns="http://www.w3.org/2000/svg" version="1.1" id="svg2" width="327.67999" height="136.32001" viewBox="0 0 327.67999 136.32001"> <defs id="defs6"/> <g id="g8"> <path style="fill:#000000;stroke-width:0.356653" d="m 273.14335,130.07733 c -0.12122,-0.87616 -0.34982,-2.24448 -0.50778,-3.04072 -0.35797,-1.80601 -0.22217,-2.0375 1.19511,-2.0375 1.5779,0 6.21589,-1.29622 7.38739,-2.06462 0.53297,-0.34956 1.43698,-1.0805 2.00917,-1.6243 0.95401,-0.90687 1.35592,-1.00788 4.85414,-1.21991 2.09769,-0.12716 5.21819,-0.46964 6.93448,-0.76108 1.71634,-0.29145 5.92898,-0.96105 9.36156,-1.488 3.43257,-0.52694 6.56001,-1.03988 6.94987,-1.13986 0.60702,-0.1557 0.86764,0.22926 1.81521,2.68226 0.60854,1.57521 1.63509,4.42542 2.28113,6.33376 1.06292,3.1393 1.95594,4.60518 1.95594,3.21049 0,-0.58181 -3.48083,-10.65566 -4.11529,-11.91 -0.35645,-0.70466 -0.23372,-0.8467 1.42941,-1.65566 2.57597,-1.25299 3.89217,-2.55713 5.00865,-4.96278 l 0.97124,-2.09263 -0.01,-13.207126 c -0.0103,-13.873323 -0.27554,-17.308709 -1.90349,-24.656017 -1.47676,-6.664785 -4.54847,-12.886265 -7.76977,-15.736987 -2.43084,-2.151184 -8.6368,-6.026576 -9.01698,-5.630773 -0.41176,0.428741 -0.62067,0.256596 3.49774,2.882213 6.15739,3.92544 8.59917,6.970908 10.87167,13.559359 2.57475,7.464786 3.49271,15.41452 3.50947,30.392175 0.0141,12.543856 -0.17993,13.781146 -2.57082,16.388896 -1.70062,1.85498 -4.22563,2.97932 -8.3967,3.73893 -7.23041,1.31676 -17.33438,2.78486 -20.5204,2.98159 l -3.53093,0.21803 0.55589,-1.61307 c 0.39604,-1.14902 0.56404,-2.98358 0.58373,-6.37715 0.0246,-4.23176 0.0966,-4.77792 0.63468,-4.88786 0.36062,-0.0736 0.60684,-0.45428 0.60684,-0.93831 0,-0.91157 0.0928,-0.93962 8.66811,-2.64564 4.91191,-0.97708 7.22467,-1.32066 8.66811,-1.28768 0.94284,0.0215 2.00935,-0.53185 1.68547,-0.87458 -0.30588,-0.32355 -6.20668,0.46244 -6.69569,0.89185 -0.23524,0.20662 -0.51025,0.2884 -0.61101,0.18176 -0.20038,-0.21197 -6.14469,0.71655 -9.46122,1.47786 -1.38508,0.31795 -2.15388,0.35316 -2.3004,0.10535 -0.25493,-0.43132 -0.53259,-3.04013 -0.85438,-8.032296 l -0.22766,-3.53102 1.81521,-0.49225 c 2.33417,-0.63298 3.71024,-2.28715 5.34951,-6.430632 2.48893,-6.291075 5.24683,-17.977818 4.88108,-20.683807 -0.36536,-2.702599 -0.33051,-2.898701 1.52012,-8.552953 0.97825,-2.989029 1.77866,-5.968948 1.77866,-6.622045 0,-0.898459 -0.40721,-1.674 -1.67335,-3.186715 -0.9203,-1.099599 -1.96916,-2.370722 -2.3308,-2.824717 -0.36156,-0.453995 -0.86063,-0.825445 -1.10913,-0.825445 -0.47956,0 -0.88431,-0.895972 -1.2847,-2.843201 -0.19792,-0.962385 -0.13637,-1.19231 0.31838,-1.19231 0.90988,0 2.14362,-1.582177 2.41137,-3.092302 0.1572,-0.882471 0.6237,-1.733915 1.26463,-2.304581 0.8254,-0.734867 1.01613,-1.192075 1.01424,-2.4316 -0.001,-0.905804 -0.2824,-1.97411 -0.69113,-2.627158 -0.43959,-0.702285 -0.6896,-1.721611 -0.69112,-2.816574 -0.002,-1.403202 -0.16478,-1.850836 -0.89131,-2.455837 -0.48885,-0.406921 -1.08243,-0.661299 -1.3188,-0.565285 -0.27368,0.111092 -0.71593,-0.682506 -1.21652,-2.182605 -0.91802,-2.751249 -1.61066,-3.535449 -4.2047,-4.760445 -3.48839,-1.647307 -8.79287,-1.567099 -12.44615,0.188197 -5.49255,2.638995 -6.74434,5.23662 -6.4219,13.326279 0.21307,5.347241 0.35456,6.420129 0.84605,6.420129 0.20209,0 0.34092,-1.675147 0.34206,-4.127226 0.002,-5.086699 0.36327,-6.656878 1.65024,-7.179056 5.85099,-2.374003 9.79821,-2.942826 10.96387,-1.579973 0.33846,0.395743 1.24455,0.766 2.13388,0.872075 0.85021,0.101393 1.76445,0.376425 2.03177,0.611193 0.26743,0.234772 0.83052,1.782136 1.25137,3.438585 0.42084,1.656452 0.90135,3.283743 1.06764,3.616202 0.24414,0.48807 -0.14773,0.885601 -2.03124,2.064352 l -2.3336,1.459877 -2.42707,-0.351708 c -1.33489,-0.193441 -3.83546,-0.296951 -5.55679,-0.230029 -2.87811,0.111906 -3.2788,0.222999 -4.98494,1.382192 l -1.85517,1.260511 0.19906,2.224702 c 0.26023,2.908805 1.35383,6.581153 2.57427,8.644835 0.89529,1.513937 0.94113,1.75741 0.5521,2.934916 -0.57729,1.747168 -0.561,3.078138 0.0568,4.642393 0.28599,0.724378 0.52009,1.366775 0.52009,1.427559 0,0.06078 -0.48107,-0.143383 -1.06897,-0.453698 -0.71347,-0.376602 -1.51729,-0.488356 -2.41717,-0.336088 -0.99776,0.16882 -1.3133,0.108213 -1.21367,-0.233121 0.0739,-0.253679 0.23277,-0.933212 0.35285,-1.51007 0.11932,-0.576857 1.00003,-1.923349 1.95548,-2.99221 1.10136,-1.232235 1.59475,-2.036476 1.34796,-2.197789 -0.22822,-0.14919 -1.99953,1.476706 -4.28304,3.931244 l -3.89391,4.185656 -2.39393,-1.038114 c -1.31671,-0.570957 -2.96023,-1.217634 -3.65237,-1.437052 -0.87655,-0.277893 -1.45365,-0.782537 -1.9019,-1.663158 -0.35399,-0.695319 -1.08243,-1.538612 -1.619,-1.873982 -1.33432,-0.833941 -1.24417,-1.910124 0.42199,-5.037377 0.75248,-1.412428 1.36993,-2.438428 1.3722,-2.279998 0.002,0.158431 0.33088,0.103044 0.73014,-0.123089 1.0953,-0.620258 2.11261,-3.381766 2.0087,-5.452907 -0.0663,-1.336414 0.089,-2.000538 0.64472,-2.748462 0.97087,-1.305839 1.24891,-2.804487 0.96556,-5.203353 -0.14584,-1.233807 -0.0777,-2.430343 0.18183,-3.190406 0.37255,-1.090157 0.31213,-1.43969 -0.58241,-3.37302 -1.53414,-3.315014 -3.41634,-5.274082 -5.43514,-5.656999 -0.9148,-0.173506 -2.47501,-0.861186 -3.46724,-1.528178 -3.46926,-2.332089 -4.40175,-2.697317 -6.81626,-2.669739 -3.2153,0.03672 -5.18696,1.102549 -7.29835,3.945317 -0.91234,1.228396 -1.69627,2.398537 -1.74192,2.600313 -0.0454,0.201775 -0.37671,0.584522 -0.73582,0.850546 -0.35891,0.266026 -0.57104,0.623377 -0.47122,0.794112 0.10038,0.170737 0.0625,0.365802 -0.0815,0.43348 -0.14394,0.06767 -0.69661,0.800362 -1.2275,1.628193 -1.0828,1.688534 -1.70801,5.648716 -0.8917,5.648716 0.30494,0 0.32596,0.11572 0.0701,0.386572 -0.24584,0.260152 -0.2608,0.995502 -0.0455,2.248562 0.21724,1.264383 0.19091,2.430305 -0.0814,3.632741 -0.49244,2.171966 -0.19792,3.772259 0.85306,4.635198 0.67427,0.553599 0.91348,1.419656 1.56994,5.681584 l 0.77446,5.028422 -1.67506,2.010337 c -0.97105,1.165428 -1.77108,1.845964 -1.90358,1.619231 -0.26838,-0.4593 -10.17252,3.90105 -13.16521,5.795991 -3.87301,2.452342 -6.18966,5.97618 -7.46747,11.358655 l -0.57066,2.403542 -0.84832,-1.580312 c -0.4665,-0.869172 -1.35914,-2.240912 -1.9835,-3.04831 -1.07503,-1.390194 -1.14454,-1.662441 -1.31254,-5.136644 -0.22217,-4.5982 -1.02314,-7.166026 -3.88996,-12.473397 -3.07934,-5.700705 -3.72842,-7.129921 -6.11363,-13.461623 -1.16348,-3.088434 -2.51758,-6.358236 -3.00923,-7.266225 -1.47959,-2.732655 -4.52507,-5.652856 -6.86757,-6.585041 -2.03102,-0.808227 -7.73473,-1.621802 -8.6798,-1.238078 -1.10231,0.447567 -0.32368,0.765748 2.45804,1.004572 1.61937,0.139029 3.76476,0.502861 4.76745,0.808515 1.70971,0.521186 6.15713,3.317516 6.15713,3.871354 0,0.138473 0.53809,1.21286 1.19588,2.387532 0.65759,1.174671 2.04927,4.466449 3.09239,7.315059 2.14208,5.849722 3.23793,8.264588 6.15541,13.564419 2.25932,4.104225 3.311,6.966293 3.60603,9.813709 0.10796,1.040788 0.27804,2.601745 0.37823,3.468799 l 0.18183,1.576459 -1.844,-1.099765 c -2.29051,-1.366094 -5.37329,-2.236587 -7.92063,-2.236587 -1.88585,0 -1.96521,-0.04088 -2.66908,-1.375742 -1.14492,-2.171181 -2.10352,-6.088617 -2.85044,-11.647951 -1.18413,-8.812561 -1.71994,-10.98825 -3.54805,-14.402744 -1.53944,-2.875434 -4.15059,-4.724886 -7.21259,-5.108601 l -1.68945,-0.211713 0.0606,-1.471812 c 0.0379,-0.897627 -0.10796,-1.534915 -0.37236,-1.633561 -0.28694,-0.107125 -0.43335,0.226437 -0.43335,0.987635 0,1.908166 -0.93961,3.260121 -3.46926,4.991584 -1.31538,0.900288 -2.48626,1.799151 -2.60209,1.997474 -0.50627,0.866644 -0.75079,0.231649 -0.48676,-1.26365 0.63847,-3.616536 2.35468,-6.599084 4.56928,-7.941236 1.28148,-0.776663 1.87771,-0.88543 4.676,-0.853027 3.17702,0.03679 4.09359,-0.311177 2.25372,-0.855598 -1.84097,-0.544739 -5.38039,-0.264549 -6.84781,0.542087 -3.00966,1.654398 -5.00755,5.095519 -5.75716,9.916022 -0.4502,2.895576 -0.0568,10.265019 0.89587,16.774599 0.59717,4.080165 0.36649,5.511255 -1.45592,9.035904 -1.63415,3.160488 -2.15585,5.088383 -1.37694,5.088383 0.29963,0 0.59661,-0.490668 0.72161,-1.19231 0.11743,-0.65577 0.76328,-2.158335 1.43622,-3.339029 0.67313,-1.180695 1.39929,-2.841208 1.61388,-3.690027 l 0.39017,-1.543307 1.34152,1.539866 c 0.7379,0.846924 1.8046,1.742864 2.37074,1.990974 l 1.0292,0.451108 -1.35421,1.699052 c -1.03905,1.303646 -1.93565,1.948198 -3.85286,2.76963 -3.25654,1.395285 -6.28992,3.782982 -7.43698,5.853966 -0.51877,0.936697 -1.04966,2.647743 -1.23016,3.965154 -0.36289,2.648814 -1.09132,17.536979 -2.06984,42.305675 -0.45778,11.58647 -0.44736,12.65681 0.12122,12.65681 0.37482,0 0.51725,-1.75476 0.70741,-8.71302 0.13068,-4.79217 0.30379,-10.03375 0.38391,-11.64795 0.0796,-1.6142 0.22974,-4.91599 0.33183,-7.33729 0.72199,-17.10175 1.33679,-26.997031 1.78339,-28.705523 0.27672,-1.058422 0.98772,-2.508506 1.58017,-3.222409 0.96707,-1.165544 5.72956,-4.457215 6.00315,-4.14928 0.0606,0.06847 -0.96537,1.360863 -2.28053,2.872003 -2.51684,2.891989 -2.90917,3.896883 -1.61104,4.12631 0.6987,0.123479 0.55381,0.365474 -1.3883,2.318419 -2.00698,2.018148 -2.16839,2.2983 -2.16702,3.761636 7e-4,0.897015 0.63013,3.516003 1.45478,6.053265 1.68074,5.172053 1.78548,6.886133 0.9917,16.211849 -0.61442,7.21808 -0.14205,28.4516 0.63847,28.72554 0.40891,0.14344 0.44244,-1.23114 0.21856,-8.95851 -0.30076,-10.38358 -0.28807,-17.94192 0.036,-21.417926 0.24755,-2.65468 1.37296,-5.68681 2.50633,-6.75214 0.70571,-0.6634 1.03867,-2.06778 0.48354,-2.03924 -0.14394,0.008 -0.68922,0.61175 -1.21348,1.3431 -1.18716,1.6555 -1.19626,1.24083 -0.0474,-2.16005 1.71085,-5.067427 4.28067,-9.018132 12.3127,-18.928978 5.60912,-6.921199 9.81655,-14.018982 8.31016,-14.018982 -0.17425,0 -0.94909,1.221614 -1.72354,2.714697 -1.73737,3.349555 -4.33806,6.998276 -9.57044,13.427344 -2.21692,2.72397 -5.11454,6.653661 -6.43909,8.732646 -2.76795,4.344489 -2.98173,4.099797 -1.41804,-1.623128 1.25212,-4.582667 2.55683,-7.809719 5.77057,-14.273235 2.26852,-4.562504 2.66505,-5.155284 3.49729,-5.228162 2.82942,-0.247773 5.83469,-1.974858 7.91833,-4.550537 l 1.18262,-1.461882 -0.69377,-1.244199 c -0.91538,-1.641539 -1.66938,-4.71271 -1.66085,-6.765753 0.005,-1.339995 0.17235,-1.778586 0.88639,-2.328956 0.48373,-0.372936 0.93014,-0.62057 0.9917,-0.550298 0.0625,0.07028 0.45096,2.68665 0.86518,5.81417 0.94643,7.147341 1.48546,9.41945 3.02127,12.736045 l 1.22599,2.647269 -0.80874,2.386033 c -0.4913,1.44961 -0.93374,2.253782 -1.12731,2.049052 -0.19357,-0.204724 -0.69964,-0.12841 -1.28981,0.194461 -1.67601,0.917081 -4.42331,1.39891 -5.01477,0.879525 -0.77351,-0.67921 -1.02996,-0.113603 -0.56498,1.246473 0.22728,0.665028 0.41327,1.763973 0.41327,2.442104 0,1.36463 -0.87465,2.356661 -9.98359,11.323331 -2.53512,2.49556 -4.55958,4.69537 -4.49875,4.88847 0.11554,0.36382 0.6218,0.44699 0.60229,0.0988 -0.006,-0.1085 0.50097,-0.64162 1.12694,-1.18469 3.35442,-2.91081 12.48263,-12.052422 13.1139,-13.133205 0.5146,-0.880866 0.70116,-1.71718 0.62672,-2.807627 l -0.10606,-1.553067 1.41179,-0.255017 c 0.77654,-0.140261 2.00633,-0.517845 2.73295,-0.839078 0.72654,-0.321231 1.36349,-0.539166 1.41539,-0.484302 0.0511,0.05487 -0.0758,0.771832 -0.2824,1.593259 -0.32558,1.290422 -0.60703,1.605265 -2.06992,2.315379 -1.87298,0.909144 -3.39969,2.829387 -4.20788,5.292395 -0.69321,2.112608 -2.30332,8.629953 -2.46287,9.969233 -0.072,0.60533 -0.30001,1.56278 -0.50646,2.12768 -0.49698,1.36008 -0.41251,4.9165 0.15152,6.372 0.24774,0.63932 0.35968,1.2584 0.24869,1.37574 -0.36441,0.3855 -2.36554,0.22281 -2.79053,-0.22687 -0.30418,-0.32196 -0.51915,-0.33109 -0.80003,-0.0339 -0.65646,0.69466 0.69359,1.1173 3.67781,1.15122 3.62154,0.0412 5.37424,-0.24433 5.37424,-0.8754 0,-0.38766 -0.40589,-0.44991 -1.79703,-0.27558 l -1.79703,0.22518 0.81252,-1.2074 c 0.44699,-0.66408 1.31501,-2.43057 1.92929,-3.92554 l 1.1167,-2.71809 2.12138,4.6433 c 1.16671,2.55381 2.12134,4.788986 2.12134,4.967056 0,0.17807 -0.2341,0.32377 -0.52009,0.32377 -0.286,0 -0.52009,0.14969 -0.52009,0.33263 0,0.18295 1.52126,0.44061 3.38056,0.5726 3.71939,0.26401 6.56698,0.76293 7.365,1.29042 0.42312,0.27971 0.43562,0.42798 0.0682,0.8157 -0.32103,0.33896 -1.75157,0.4748 -5.02461,0.47714 -2.67202,0.002 -4.64789,0.15455 -4.74912,0.36686 -0.2769,0.58065 6.08984,1.06629 8.316,0.63432 2.11698,-0.41077 3.23711,-0.0642 3.05885,0.94634 -0.19963,1.13114 -3.18721,1.86765 -7.64759,1.88523 -3.73118,0.0147 -4.93764,0.32062 -3.52555,0.89397 1.06462,0.43224 6.58581,0.20401 8.63974,-0.35717 3.07054,-0.83892 3.45057,-0.82828 3.57542,0.10008 0.0795,0.59594 -0.18561,0.9652 -1.02731,1.42552 -1.21708,0.66598 -6.4371,1.61545 -8.90478,1.61971 -1.04928,0.002 -1.45762,0.14091 -1.35383,0.46118 0.16667,0.51463 0.89965,0.54039 5.05914,0.17784 2.5059,-0.21841 2.84008,-0.18085 2.47959,0.27874 -0.84719,1.08013 -4.58547,2.75348 -6.15128,2.75348 -2.18384,0 -3.17833,-1.1864 -4.39568,-5.24403 -0.83165,-2.77187 -0.90912,-3.3763 -0.55096,-4.29134 0.34471,-0.88075 0.318,-1.27475 -0.15531,-2.27669 -0.54699,-1.15964 -0.54112,-1.23777 0.13826,-1.82075 0.88242,-0.75657 0.89871,-1.04178 0.0587,-1.04178 -1.01917,0 -1.54002,0.93506 -1.27543,2.28955 0.22994,1.17656 0.26933,2.02542 0.18751,4.05722 -0.0644,1.63334 1.73036,6.83955 2.79233,8.0972 0.87881,1.04077 1.16045,1.14778 3.01949,1.14778 1.44418,0 2.5798,-0.26243 3.8414,-0.88767 0.98507,-0.4882 1.84305,-0.81838 1.90644,-0.73372 0.0644,0.0846 1.10478,1.92795 2.31429,4.0962 3.28687,5.8926 2.71851,5.5209 8.18345,5.35191 l 4.61758,-0.14275 0.10038,2.54879 c 0.0644,1.63267 0.25607,2.6033 0.53373,2.70044 0.32084,0.11224 0.43335,-0.55851 0.43335,-2.58055 v -2.73219 l 4.03901,-0.26316 c 2.22144,-0.14476 4.42407,-0.4181 4.89471,-0.60741 0.70419,-0.28332 0.99416,-0.18612 1.63812,0.54906 1.90478,2.17468 5.9095,3.33623 9.58078,2.77888 1.21613,-0.18463 3.53729,-0.75238 5.15822,-1.26169 4.15371,-1.3051 6.82037,-1.44619 14.73579,-0.77966 3.81395,0.32117 7.82039,0.58414 8.90319,0.58439 l 1.96872,3.6e-4 0.22482,2.10948 c 0.28505,2.67468 0.62332,3.85847 1.1561,4.04639 0.30853,0.10881 0.36194,-0.2768 0.20019,-1.44453 z m -38.54408,-4.8924 c -1.82203,-0.78189 -1.92702,-1.32056 -0.17236,-0.88968 1.77355,0.4358 4.24736,0.41841 4.24736,-0.0299 0,-0.20179 -0.11743,-0.37014 -0.26005,-0.37413 -1.21746,-0.034 -5.43427,-0.8508 -6.74149,-1.30581 -1.63888,-0.57044 -3.40019,-1.78444 -3.40019,-2.34357 0,-0.16588 0.56309,-0.16721 1.25137,-0.004 0.68828,0.16425 2.58029,0.41577 4.20448,0.55892 2.43243,0.21438 2.92509,0.17109 2.7945,-0.24556 -0.10796,-0.34453 -1.08943,-0.59485 -3.07762,-0.78501 -1.60554,-0.15357 -3.74435,-0.53152 -4.75303,-0.8399 -1.68699,-0.51575 -3.19356,-1.59311 -3.19356,-2.28369 0,-0.15641 1.63831,-0.22023 3.64084,-0.14181 3.9107,0.15314 6.76091,-0.14062 6.76091,-0.69687 0,-0.19763 -2.03153,-0.34677 -4.76747,-0.34999 -4.97892,-0.005 -6.08937,-0.25615 -5.34533,-1.20473 1.30516,-1.66392 6.68176,-1.87069 16.35384,-0.62891 7.66451,0.98402 18.81858,1.35702 23.05715,0.77102 5.39377,-0.7457 9.25047,-1.96481 7.88799,-2.49342 -0.23846,-0.0925 -0.43335,-0.64965 -0.43335,-1.23817 0,-1.06434 0.0111,-1.07002 2.10016,-1.07002 2.15341,0 4.88641,-0.51615 5.95647,-1.12493 0.33107,-0.18839 0.82711,-0.34252 1.10212,-0.34252 0.27501,0 0.74529,-0.25943 1.04492,-0.57651 0.30115,-0.31862 0.5449,-0.3949 0.5449,-0.17052 0,0.29061 0.19471,0.29577 0.68488,0.0182 0.58733,-0.33263 0.71763,-0.25002 0.91461,0.58015 0.39263,1.65517 -0.0833,8.28784 -0.70968,9.87065 -2.25606,5.70964 -8.95941,7.2849 -24.87954,5.84656 -6.99501,-0.63198 -8.51379,-0.53662 -13.41787,0.84251 -1.83283,0.51544 -3.87856,1.06921 -4.546,1.23059 -1.78093,0.43063 -5.15966,0.14446 -6.84781,-0.57996 z m -25.96649,-4.67992 c -0.97465,-1.66464 -2.12306,-3.71107 -2.55209,-4.54763 l -0.78014,-1.521 0.98981,-1.31248 c 0.54433,-0.72186 1.43527,-1.50771 1.97972,-1.74635 1.34929,-0.59133 1.78813,-1.91539 1.11102,-3.35147 -0.2894,-0.61383 -0.52615,-1.41947 -0.52615,-1.79031 0,-0.37084 -0.31213,-0.88046 -0.6934,-1.13247 -0.38145,-0.25203 -0.69339,-0.72311 -0.69339,-1.04686 0,-1.55742 -3.51612,-2.87972 -7.7005,-2.89588 l -1.97956,-0.008 -2.76196,-5.961536 c -1.51899,-3.27886 -2.85529,-6.31003 -2.96932,-6.73595 -0.20456,-0.76391 -0.11743,-0.77715 6.47513,-0.977781 4.2135,-0.128242 9.11652,-0.553739 13.27026,-1.151632 3.62326,-0.521538 6.61338,-0.948254 6.64467,-0.948261 0.0322,-7e-6 1.37523,2.682684 2.98657,5.961544 3.42612,6.97183 6.1318,11.992776 8.96378,16.634106 1.11936,1.83438 2.03507,3.44401 2.03507,3.57693 0,0.13292 -0.75173,0.24166 -1.6707,0.24166 -2.32074,0 -5.15807,0.95565 -5.76968,1.94332 -0.93241,1.50574 -0.37577,4.23333 1.02598,5.0271 0.45153,0.25573 1.00894,0.94473 1.23849,1.53111 0.22956,0.58639 0.73753,1.30342 1.12883,1.59342 0.3913,0.28998 0.62142,0.62248 0.51138,0.73889 -0.30172,0.31917 -7.77698,0.7928 -13.45895,0.85273 l -5.03271,0.053 z m 37.84179,-7.46126 c -2.66979,-0.28532 -6.60119,-0.70698 -8.73647,-0.93703 l -3.8823,-0.41827 -1.63396,-2.5999 c -2.8903,-4.59911 -5.17979,-8.76647 -8.99162,-16.366826 l -3.7284,-7.433964 0.072,-7.292299 c 0.0644,-6.483326 0.0109,-7.292305 -0.48411,-7.292305 -0.4949,0 -0.54566,0.755105 -0.45532,6.788016 l 0.10228,6.788011 -1.12693,0.182417 c -0.61972,0.100325 -1.67297,0.272437 -2.34038,0.382467 -1.46785,0.241972 -1.4546,0.365092 -0.65968,-6.117401 1.34758,-10.98984 3.4782,-15.299181 9.1118,-18.429013 2.32767,-1.293177 11.06943,-5.369673 11.51488,-5.369673 0.13258,0 -0.28391,1.116768 -0.9273,2.48171 -2.71352,5.755681 -3.39619,12.816488 -2.5601,26.479013 0.38789,6.337941 0.38543,7.525081 -0.016,7.666641 -0.8112,0.28611 -2.03561,1.78505 -2.27197,2.7814 -0.125,0.52314 -0.12121,1.53577 0.005,2.25028 0.4074,2.2975 3.15582,3.40568 5.40052,2.17748 1.26083,-0.68987 1.72676,-1.58264 1.72676,-3.30898 0,-1.70703 -0.89568,-3.32184 -2.14644,-3.87004 -0.53581,-0.23481 -0.97465,-0.69581 -0.97522,-1.02443 -6.8e-4,-0.32862 -0.24376,-4.229465 -0.54017,-8.668527 -0.77824,-11.653571 -0.0511,-18.501708 2.52349,-23.787001 l 0.92257,-1.89352 0.46062,4.035512 c 0.81272,7.121574 3.02116,13.97193 6.34927,19.694981 l 1.05553,1.815224 -1.05118,1.404223 c -1.17257,1.566456 -1.29152,1.958711 -0.54149,1.784113 0.76252,-0.177512 5.3473,-6.389098 9.18621,-12.445896 3.1463,-4.96403 6.61115,-11.639285 7.58088,-14.605041 0.2252,-0.688487 0.48922,-1.167257 0.58695,-1.063929 0.28713,0.303701 1.25156,11.296454 1.02503,11.68402 -0.11364,0.194494 -0.40228,0.353621 -0.6413,0.353621 -0.74226,0 -2.24455,1.949838 -2.8307,3.673845 -0.46953,1.381128 -0.52123,2.589336 -0.32199,7.515525 0.20816,5.141146 0.48203,7.586206 1.35611,12.10653 0.11743,0.60533 0.44509,1.73056 0.72881,2.50052 0.28372,0.76995 0.43733,1.53442 0.3413,1.6988 -0.31895,0.54593 -1.77506,0.6315 -2.21763,0.13031 -0.23978,-0.27152 -0.57653,-0.40161 -0.7487,-0.28911 -0.17235,0.11252 -0.44566,-0.33784 -0.60797,-1.00081 -0.24925,-1.01803 -0.45343,-1.20539 -1.3133,-1.20539 -0.62957,0 -0.98507,0.17501 -0.93147,0.45858 0.0473,0.25222 -0.0928,0.45859 -0.31384,0.45859 -0.22482,0 -0.11932,0.32754 0.23827,0.74666 0.35114,0.41066 0.81934,0.6733 1.04018,0.58364 0.22084,-0.0896 1.06689,0.15214 1.87999,0.53736 1.66596,0.7892 2.63901,0.88826 2.98061,0.30345 0.14584,-0.25036 0.60343,-0.0202 1.23811,0.62316 0.73241,0.74236 1.54797,1.10452 2.9958,1.33012 3.81529,0.59451 4.05833,0.56615 4.17404,-0.48715 0.0587,-0.53637 -0.13637,-1.15916 -0.44774,-1.43322 -0.4646,-0.40797 -0.79624,-0.3555 -2.0967,0.33166 -1.61388,0.85287 -2.58994,0.79262 -3.68956,-0.22774 -0.54358,-0.50437 -0.53751,-0.61708 0.089,-1.69922 1.91762,-3.30751 2.9572,-6.80835 4.12135,-13.878945 1.31557,-7.990198 0.7076,-10.678967 -2.93207,-12.965454 -0.47558,-0.298775 -0.68676,-1.432999 -1.07636,-5.779505 -0.26648,-2.974276 -0.62464,-6.067509 -0.79586,-6.873853 -0.17046,-0.806339 -0.24395,-1.466072 -0.16099,-1.466072 0.0814,0 1.51104,0.556325 3.17496,1.236276 6.60813,2.700303 12.16708,6.206922 14.24916,8.988457 1.47335,1.968313 2.99194,5.889298 4.0262,10.395599 1.26689,5.520076 3.63728,24.284737 3.63728,28.794353 v 1.50505 l -2.68712,1.01776 c -1.47789,0.55975 -3.07719,1.17383 -3.55393,1.36463 -1.40478,0.56217 -6.64156,1.05341 -7.18931,0.67437 -0.18371,-0.12696 -0.43334,-2.70717 -0.55532,-5.7338 -0.40134,-9.966866 -0.62634,-12.289956 -1.18962,-12.289956 -0.4199,0 -0.47217,0.46527 -0.29906,2.65976 0.40986,5.19807 1.00799,18.638936 0.83734,18.819456 -0.37312,0.3947 -5.47509,1.33698 -8.76702,1.61914 -4.05368,0.34744 -9.50514,0.15729 -16.29603,-0.56846 z M 266.2603,98.179564 c 0.30266,-0.51799 0.84435,-0.38301 0.84435,0.21037 0,0.32726 -0.20342,0.45619 -0.5182,0.32841 -0.28505,-0.1157 -0.43184,-0.35814 -0.32634,-0.53878 z m -35.13781,-0.53266 c -1.36558,-1.012 -0.72219,-4.93187 0.8093,-4.93187 0.69359,0 0.62673,0.36086 -0.25019,1.34847 -0.63904,0.71965 -0.69169,0.98247 -0.35418,1.76625 0.39944,0.92779 1.81256,1.26212 2.70503,0.64002 0.81613,-0.56885 0.88355,-1.86036 0.13826,-2.64876 -0.39812,-0.42123 -0.63506,-0.91773 -0.52672,-1.10334 0.63752,-1.09143 2.47968,1.94731 2.06139,3.40034 -0.5896,2.04838 -2.86017,2.80581 -4.58312,1.52889 z m -44.51258,-0.945 c -0.46441,-1.63977 -0.003,-4.89702 1.47448,-10.407002 1.26027,-4.700794 1.65877,-5.555764 3.07166,-6.591793 1.64835,-1.208636 2.97343,-1.126909 3.93552,0.242725 l 0.69416,0.988219 -1.09322,2.42175 c -1.17599,2.605069 -1.29682,3.122532 -0.72843,3.122532 0.20076,0 0.84131,-1.031807 1.42372,-2.292905 0.5824,-1.261097 1.30156,-2.783844 1.59816,-3.383885 0.83885,-1.696715 0.75438,-5.047483 -0.16099,-6.356291 l -0.75325,-1.078062 1.42372,-4.450369 1.42372,-4.450364 h 1.79268 c 4.70635,0 9.51651,3.324791 11.82908,8.176283 0.50135,1.051871 1.0489,2.005846 1.21652,2.119941 0.33391,0.227287 -0.62654,9.916092 -1.02106,10.299331 -0.50039,0.486096 -11.89134,1.539096 -16.97079,1.568816 -2.90807,0.01702 -5.28748,0.151412 -5.28754,0.298661 -8e-5,0.147248 0.24224,0.908483 0.53828,1.691623 0.5307,1.40322 0.51838,1.47308 -0.84094,4.80921 -1.31444,3.22591 -2.24669,4.78768 -2.8579,4.78768 -0.15341,0 -0.47217,-0.68225 -0.70836,-1.5161 z m 14.27256,-11.049015 c 0.14205,-6.103144 0.27955,-7.212726 1.1453,-9.213646 0.50115,-1.158272 1.22807,-2.532271 1.61558,-3.053329 0.80723,-1.085824 0.89227,-1.582471 0.27085,-1.581454 -0.62805,0.0011 -2.64638,3.284013 -3.17878,5.170713 -0.96575,3.422154 -1.07201,8.769432 -0.17425,8.769432 0.17614,0 0.32009,-0.04128 0.32122,-0.09172 z m 53.25593,9.780365 c -0.34812,-0.95994 0.37085,-1.24235 1.09265,-0.42924 l 0.73639,0.82936 h -0.84188 c -0.46309,0 -0.90723,-0.18005 -0.98716,-0.40012 z m -21.93645,0.009 c -0.27406,-0.75557 0.30986,-1.34481 1.03905,-1.0487 0.67881,0.27562 0.7667,1.11509 0.14395,1.3807 -0.75078,0.32055 -0.96935,0.25925 -1.18375,-0.332 z m 27.85441,-0.80081 c -0.84586,-1.78394 -1.22258,-4.17953 -1.61899,-10.293489 -0.41971,-6.47366 -0.24546,-7.898275 1.16879,-9.556117 1.11519,-1.307138 2.14062,-1.59953 3.50082,-0.998188 1.37902,0.609681 2.21242,1.820224 2.39494,3.478918 0.1572,1.427545 -1.22599,9.616317 -2.16113,12.795516 -0.60059,2.04192 -2.28523,5.58224 -2.65621,5.58224 -0.0814,0 -0.36516,-0.45399 -0.62822,-1.00888 z m 27.66103,-4.89086 c -0.12689,-0.21813 -0.60475,-0.29753 -1.06064,-0.17645 -0.60172,0.15978 -0.829,0.0673 -0.829,-0.33714 0,-0.3065 0.2125,-0.55728 0.47236,-0.55728 0.31175,0 0.54529,-0.65722 0.68696,-1.932351 0.26042,-2.344994 0.77067,-4.039739 3.26331,-10.840753 2.06707,-5.639736 3.07836,-7.037776 5.09085,-7.037776 0.94851,0 0.95211,0.0096 0.71972,1.926039 -0.38562,3.179459 -2.84989,11.838512 -4.20747,14.784287 -1.55725,3.379064 -3.47131,5.309384 -4.13612,4.171234 z M 170.27355,84.460579 c -2.0534,-6.648163 -2.08594,-6.150258 0.57692,-8.832478 2.33305,-2.3501 2.80259,-3.485546 1.70915,-4.133012 -0.49188,-0.291282 -0.009,-0.966563 3.09082,-4.328889 4.00871,-4.347065 5.11994,-5.721927 5.11994,-6.334536 0,-0.220394 0.15531,-0.400715 0.34679,-0.400715 0.19073,0 0.34679,0.117088 0.34679,0.260199 0,0.14311 -1.23091,2.825807 -2.73558,5.96155 -1.50459,3.135742 -3.30359,7.317125 -3.99784,9.29196 -1.32277,3.762571 -2.62814,9.689025 -2.62814,11.931456 0,1.92272 -0.42501,1.12885 -1.82866,-3.415535 z m 113.63298,-7.309516 c -1.01954,-5.342653 -0.97863,-8.000627 0.22671,-14.750913 1.25686,-7.039699 2.8357,-10.407087 4.87922,-10.407087 1.76104,0 3.67334,0.777464 5.10784,2.07666 0.74396,0.673816 1.61103,1.225121 1.92675,1.225121 0.50039,0 1.91811,-2.770626 3.47303,-6.786994 0.26762,-0.69114 0.29281,-0.694288 0.436,-0.05424 0.20474,0.915382 -0.37558,3.260273 -2.05621,8.308698 -1.12901,3.391611 -1.65782,4.470739 -2.69666,5.502969 -1.75631,1.74514 -2.90212,3.950379 -4.14652,7.98003 -0.57653,1.866821 -1.82222,5.581325 -2.76833,8.254453 -0.94605,2.673127 -1.91885,6.004205 -2.16174,7.402396 l -0.44168,2.542168 -0.43695,-3.275897 c -0.24016,-1.801742 -0.84396,-5.409555 -1.34152,-8.017359 z m -41.51401,-0.945586 c -2.21632,-4.614823 -3.42735,-8.437558 -4.228,-13.346248 -0.68677,-4.210644 -0.70741,-8.787467 -0.0417,-9.3716 0.34016,-0.298741 0.55873,-0.310603 0.71745,-0.03894 0.95969,1.643011 1.18697,-3.693978 0.35361,-8.302065 -0.286,-1.581509 -0.52009,-3.734712 -0.52009,-4.78489 -6e-5,-1.875495 0.0189,-1.912373 1.12674,-2.075921 0.61972,-0.09158 2.26094,-0.346691 3.64705,-0.566921 3.57307,-0.5677 4.44505,-0.514527 8.46621,0.516275 1.96681,0.504174 4.02551,0.916897 4.57487,0.917161 0.9612,3.68e-4 0.99075,0.05229 0.78392,1.376215 -0.11742,0.75666 -0.21667,2.414624 -0.21875,3.684364 -0.004,2.24466 -0.0492,2.36049 -1.65081,4.180884 -3.34758,3.805581 -7.76748,4.963366 -11.47836,3.006738 -1.00079,-0.527669 -1.91177,-0.861839 -2.02446,-0.742597 -0.38183,0.404003 0.60191,1.25139 2.40601,2.072583 3.23423,1.47215 7.34967,0.527749 10.62433,-2.438047 1.26898,-1.149316 1.44948,-1.218012 1.63225,-0.621248 0.63335,2.068126 1.02333,2.792134 1.94698,3.614456 l 1.02314,0.910893 -0.72143,2.291744 c -1.01878,3.236714 -4.12656,9.600333 -6.82502,13.975552 -3.37994,5.480169 -6.76052,10.192615 -7.20368,10.041727 -0.21346,-0.0727 -1.28906,-2.007759 -2.38993,-4.300116 z m -49.92359,1.733637 c -0.80533,0.227426 -1.53585,0.3376 -1.62354,0.244831 -0.36346,-0.384614 2.65928,-3.079256 3.6999,-3.29827 0.98905,-0.208174 1.16083,-0.120857 1.47353,0.749731 0.39244,1.092255 0.47104,2.892672 0.14205,3.241384 -0.11743,0.123696 -0.66593,-0.129716 -1.21993,-0.56314 -0.89984,-0.703936 -1.16367,-0.74391 -2.4715,-0.374536 z m 69.39494,-5.400262 c -0.73014,-7.34e-4 -1.62146,0.304972 -2.13504,0.732359 -1.24379,1.035169 -1.37561,0.925198 -0.76972,-0.642014 1.09985,-2.845073 3.16005,-3.476087 4.99839,-1.530956 0.58676,0.620849 1.06689,1.267705 1.06689,1.437455 0,0.169749 0.0985,0.58062 0.21913,0.913043 0.18372,0.507157 0.0303,0.482691 -0.95344,-0.152058 -0.64491,-0.41605 -1.7368,-0.757077 -2.42614,-0.757829 z m 19.80321,-4.807731 c 0,-3.108327 -1.0311,-7.084922 -2.77691,-10.709815 -1.74968,-3.63295 -2.05804,-5.169556 -1.40308,-6.992351 0.32615,-0.907646 0.3341,-0.909105 1.99367,-0.366608 0.99795,0.326253 2.271,0.462234 3.17438,0.339101 3.49593,-0.476506 7.79003,-4.06342 10.14081,-8.470735 l 1.14663,-2.149823 0.29831,1.217813 c 0.16477,0.6698 0.53183,1.59507 0.81745,2.056153 0.47501,0.76708 0.44528,0.992442 -0.34926,2.65141 -1.15723,2.416325 -3.91675,5.010434 -5.88888,5.53587 -1.87242,0.498883 -3.00389,1.820561 -4.04228,4.722134 -0.92844,2.594507 -1.97707,7.816105 -2.28316,11.369412 -0.23827,2.76554 -0.82768,3.333453 -0.82768,0.797439 z m 12.12654,-1.114876 c 0.89491,-1.977282 2.32062,-3.735914 2.78323,-3.433397 0.37218,0.243338 0.46138,2.809955 0.14205,4.070572 -0.14015,0.552105 -0.40777,0.726605 -0.9487,0.618269 -0.41441,-0.08302 -1.1436,0.0056 -1.62032,0.196911 -0.47672,0.191315 -0.91461,0.302685 -0.97314,0.247491 -0.0587,-0.05519 0.21952,-0.820126 0.61764,-1.699846 z m -14.60473,-2.439022 c -0.50475,-0.755792 -1.78453,-2.031707 -2.84382,-2.835368 -1.77904,-1.349797 -1.92679,-1.573086 -1.93725,-2.928662 -0.006,-0.807101 0.13827,-1.715091 0.31952,-2.017755 0.28903,-0.480875 0.43051,-0.483932 1.12163,-0.02421 0.43486,0.289339 1.20174,0.745855 1.70384,1.01448 0.63165,0.337783 1.14,1.137236 1.64854,2.59228 0.80192,2.29382 1.46445,5.593756 1.12068,5.58125 -0.11742,-0.0042 -0.62824,-0.626209 -1.13318,-1.381997 z m -98.19481,-4.876764 c -1.95425,-0.574153 -4.22279,-2.955652 -5.05361,-5.30522 -0.93716,-2.650495 -1.3349,-6.700584 -0.67825,-6.907794 5.15834,-1.627668 6.0328,-1.784069 8.76723,-1.568101 1.54474,0.121997 3.35458,0.09436 4.02202,-0.06141 l 1.21349,-0.28322 0.41365,3.00179 c 0.22747,1.650985 0.76404,3.790555 1.19228,4.754598 l 0.77862,1.752809 -1.6046,1.53704 c -2.99373,2.867862 -6.13441,3.936426 -9.05111,3.079502 z m 88.21236,-2.635261 c -0.0118,-0.154294 0.52047,-0.897194 1.1828,-1.65089 l 1.20421,-1.370354 0.009,1.598947 c 0.009,1.541282 0.0417,1.590221 0.92011,1.357105 0.74832,-0.198739 0.872,-0.135097 0.69339,0.357098 -0.11932,0.329416 -0.21724,0.905767 -0.21724,1.280776 0,0.627136 -0.15152,0.602652 -1.88548,-0.305151 -1.03696,-0.542845 -1.89519,-1.113235 -1.90697,-1.267531 z m 25.15286,-3.706227 c -0.84113,-0.679404 -1.92486,-1.340286 -2.40815,-1.468625 -0.86556,-0.229864 -0.85154,-0.260549 0.94227,-2.055565 1.05571,-1.056493 2.16998,-2.636165 2.65151,-3.759192 0.45683,-1.065338 0.86025,-1.9894 0.89662,-2.053473 0.036,-0.06407 0.67843,0.578251 1.42713,1.427385 l 1.36103,1.543881 -1.54892,3.800434 c -0.85192,2.09024 -1.60365,3.800434 -1.67032,3.800434 -0.0663,0 -0.80968,-0.555876 -1.651,-1.235279 z m -15.34606,-4.608907 c -2.25407,-1.082935 -4.11873,-5.109593 -4.50558,-9.72961 l -0.18562,-2.219136 1.67904,-1.100594 c 1.601,-1.049459 1.84002,-1.097186 5.14619,-1.027236 1.907,0.04035 4.16633,0.209455 5.02077,0.375802 1.40232,0.272999 1.56085,0.40872 1.62885,1.3941 0.1572,2.272122 0.50285,3.414221 1.64115,5.414482 l 1.17333,2.061749 -1.80498,1.806257 c -3.50976,3.512193 -6.71608,4.502361 -9.79285,3.024186 z m -104.66527,-6.45577 c -0.28846,-4.883522 -0.56006,-4.357035 3.89837,-7.556299 1.37694,-0.98807 2.66711,-2.119953 2.86708,-2.515296 0.28732,-0.568249 0.52559,-0.649176 1.13716,-0.386358 0.42539,0.182853 1.33111,0.427526 2.01253,0.54372 3.15734,0.538356 5.9466,3.695632 7.27119,8.230566 0.65078,2.228365 0.65438,2.364909 0.0739,2.817715 -1.29208,1.008286 -4.47567,1.631979 -8.26805,1.619736 -2.8568,-0.0092 -4.2932,0.165122 -5.86397,0.71174 -1.14416,0.398176 -2.25998,0.732834 -2.47953,0.743682 -0.26554,0.01314 -0.48278,-1.397208 -0.64889,-4.209206 z m 83.9118,-1.188737 c 0.18372,-1.559706 0.4968,-2.292379 1.45952,-3.419761 1.79873,-2.106603 2.30212,-1.935289 2.12048,0.721612 -0.16477,2.412351 -1.38224,5.023576 -1.60289,3.438299 -0.18751,-1.34563 -0.66366,-0.951248 -1.32921,1.100594 -0.50418,1.554166 -0.64964,1.754026 -0.75362,1.035137 -0.0701,-0.489995 -0.0227,-1.784142 0.10606,-2.875881 z m 31.64084,-0.360445 c -0.94094,-1.839198 -1.50308,-4.763321 -1.04871,-5.455507 0.14773,-0.226118 1.36198,-1.110925 2.69689,-1.96624 1.33489,-0.855316 2.94735,-1.968805 3.58324,-2.474421 1.58263,-1.258419 1.89929,-0.782283 1.73718,2.612626 -0.1572,3.277815 -0.81442,4.409264 -2.0787,3.573911 -0.61044,-0.403346 -0.78412,-0.402135 -1.0292,0.0071 -0.16289,0.270816 -0.29736,0.705335 -0.3002,0.965591 -0.006,0.512188 -1.25857,3.275035 -1.82336,4.020896 -0.55684,0.735398 -0.7934,0.560517 -1.73699,-1.284028 z m -53.30768,-3.548476 c 0,-1.609085 0.48165,-2.476046 1.21103,-2.179887 0.66953,0.27184 0.78071,-0.519689 0.55646,-3.958541 -0.11364,-1.746283 -0.10039,-3.105874 0.0284,-3.021308 0.12879,0.08456 0.33448,-0.177844 0.45607,-0.583131 0.46725,-1.558022 1.12371,-1.841597 4.27439,-1.846554 2.02307,-0.0034 3.72927,-0.243605 5.20699,-0.733728 2.72281,-0.903093 3.19558,-0.905169 5.02764,-0.02209 2.31525,1.115977 3.14306,1.228531 4.52904,0.615793 1.66729,-0.737125 1.79456,-0.402251 1.35345,3.564038 -0.33448,3.008151 -0.13258,5.136619 0.55475,5.864441 0.62029,0.656214 0.79549,0.02832 0.40608,-1.453455 -0.26327,-1.001327 -0.26308,-2.27206 7e-4,-4.383185 0.30929,-2.475719 0.28296,-3.196792 -0.1572,-4.310659 -0.57313,-1.451148 -0.93962,-1.634156 -1.59608,-0.797027 -0.73942,0.942699 -2.55402,1.063973 -4.03642,0.269766 -2.33498,-1.250962 -3.24111,-1.284932 -6.37078,-0.238839 -2.43565,0.814108 -3.24855,0.92787 -5.11727,0.716122 -2.74702,-0.311269 -4.00102,0.175593 -4.74921,1.843884 -0.56328,1.256104 -0.61972,1.779949 -0.57199,5.306363 0.0341,2.491215 -0.5218,1.839866 -0.85779,-1.00572 -0.12501,-1.061056 -0.37142,-1.929198 -0.5468,-1.929198 -0.19073,0 -0.19433,-0.258055 -0.009,-0.642013 0.17046,-0.353108 0.4091,-1.193641 0.52994,-1.867849 0.12121,-0.67421 0.62407,-2.077468 1.11822,-3.118351 0.49414,-1.04088 0.87218,-1.94754 0.84018,-2.014798 -0.0322,-0.06726 0.0587,-0.232348 0.19981,-0.366866 0.14205,-0.134513 0.14205,0.0032 -0.001,0.305725 -0.14205,0.302663 0.0758,0.137574 0.48638,-0.366865 0.41005,-0.504439 0.96348,-1.412428 1.23015,-2.017755 0.26649,-0.605327 0.49074,-0.941711 0.49813,-0.74752 0.008,0.194191 0.75476,-0.405786 1.66047,-1.333279 3.3291,-3.408771 7.46303,-3.25992 12.2937,0.442662 0.76101,0.583356 2.07236,1.163017 2.94362,1.301262 1.95575,0.310316 3.51292,1.697418 5.00664,4.459809 1.01102,1.869678 1.07618,2.177738 0.75154,3.548065 -0.19565,0.825339 -0.28429,2.656239 -0.19735,4.068668 0.13826,2.229928 0.0587,2.700887 -0.59339,3.576929 -0.41346,0.554883 -1.0525,1.008878 -1.42012,1.008878 -0.36763,0 -0.66821,0.165089 -0.66821,0.366864 0,0.201777 -0.21781,0.366866 -0.48411,0.366866 -0.26629,0 -0.96366,0.577812 -1.54967,1.284025 -1.29379,1.55926 -2.30038,1.637618 -6.63427,0.51649 -2.96004,-0.765726 -5.86582,-0.993363 -7.8013,-0.611144 -0.57218,0.112971 -2.32739,0.328778 -3.90064,0.479559 -2.74227,0.262813 -2.86048,0.311654 -2.86048,1.18185 0,0.765253 -0.0814,0.836033 -0.52009,0.451001 -0.31043,-0.272591 -0.52009,-1.07455 -0.52009,-1.989302 z m 60.97398,-7.090597 c -0.42767,-1.45249 -1.12599,-1.522774 -2.72545,-0.274257 -0.64681,0.504927 -1.30554,0.780989 -1.46388,0.613471 -0.15909,-0.16752 -0.65248,-1.749302 -1.09814,-3.515067 -0.44566,-1.765772 -1.04909,-3.463174 -1.34095,-3.772007 -0.29187,-0.308835 -1.2491,-0.703522 -2.1271,-0.877083 -0.87806,-0.173561 -2.05619,-0.675244 -2.61816,-1.11485 -0.9023,-0.705922 -1.31746,-0.775133 -3.55407,-0.592527 -1.39285,0.113717 -3.26716,0.542201 -4.16524,0.952187 -0.89813,0.409988 -2.17179,0.852406 -2.83047,0.983152 -0.65873,0.130746 -1.54721,0.582361 -1.97453,1.003589 l -0.77692,0.76587 0.24432,-1.075891 c 0.50021,-2.202054 1.7834,-4.381718 3.15647,-5.361588 4.71434,-3.364318 11.71708,-3.774964 15.63543,-0.916873 2.04056,1.488414 3.20785,4.29162 3.50312,8.412634 0.15721,2.188855 0.3235,2.843202 0.72446,2.843202 0.43297,0 0.48657,-0.432735 0.31743,-2.568054 -0.11174,-1.412428 -0.0663,-2.568051 0.10417,-2.568051 0.63014,0 1.34645,1.587115 1.16046,2.570961 -0.1269,0.668638 0.10796,1.586297 0.71214,2.786968 1.06614,2.1192 1.08015,2.279193 0.29926,3.456907 -0.56442,0.851441 -0.60836,0.862073 -0.71613,0.173347 -0.0625,-0.403552 -0.27254,-1.270269 -0.46573,-1.92604 z m -93.21933,94.421771 c 0,-3.1023 -0.0985,-6.15645 -0.21667,-6.78699 -0.38392,-2.03136 -0.82351,-1.22205 -0.82181,1.5133 0.003,4.5505 0.43695,10.91423 0.74491,10.91423 0.16099,0 0.29376,-2.53825 0.29376,-5.64054 z m -51.13166,2.09949 c -0.76195,-12.79924 -0.89775,-15.63622 -0.7557,-15.78656 0.089,-0.0936 1.22864,-0.33109 2.53359,-0.52753 4.73032,-0.71211 6.0208,-1.02751 6.86501,-1.67792 1.88151,-1.44956 2.82014,-7.40956 2.25847,-14.341676 -0.35418,-4.37074 -0.34206,-4.5423 0.39736,-5.64116 0.72635,-1.079182 0.74131,-1.2494 0.31346,-3.563193 -2.16242,-11.696964 -5.58547,-20.932424 -9.30904,-25.115918 -1.41274,-1.58733 -6.07181,-4.743165 -9.99262,-6.768644 -1.93514,-0.99969 -4.08018,-2.270968 -4.76675,-2.825058 -0.68658,-0.554095 -1.83378,-1.22266 -2.54924,-1.485702 l -1.30099,-0.47826 0.036,-2.505399 c 0.0322,-2.202864 0.18751,-2.767586 1.2955,-4.676643 0.69282,-1.194185 1.35572,-2.713334 1.47334,-3.375892 0.12501,-0.706372 0.56953,-1.451353 1.0739,-1.801086 1.29777,-0.89969 1.89533,-2.808916 1.81843,-5.809761 -0.036,-1.439457 0.13448,-3.319088 0.38032,-4.17696 0.35967,-1.254096 0.36327,-1.956782 0.0188,-3.585663 -0.26705,-1.262755 -0.33864,-2.912717 -0.19015,-4.380107 0.30531,-3.01762 -0.21384,-3.847796 -4.10061,-6.556186 -1.56502,-1.090493 -3.52326,-2.5819821 -4.35176,-3.3144211 -2.09475,-1.851851 -3.75351,-1.832571 -7.30886,0.08495 -1.44474,0.779164 -3.09474,1.534303 -3.66684,1.678086 -1.33679,0.33598 -2.60043,1.5867311 -2.60043,2.5739721 0,0.424371 -0.25001,1.149171 -0.55551,1.610666 -0.60854,0.919266 -0.45816,1.367008 0.34906,1.039282 0.28429,-0.115424 0.68715,-0.879161 0.8953,-1.697194 0.39907,-1.568037 1.23375,-2.36124 2.95171,-2.804899 0.57217,-0.147743 1.97633,-0.8003371 3.12052,-1.4502061 2.79854,-1.589491 3.75702,-1.782703 5.2142,-1.051069 0.66006,0.331444 1.20023,0.753789 1.20023,0.938546 0,0.184757 1.5671,1.4118701 3.48224,2.7269181 3.77999,2.595437 4.98352,4.082487 4.56748,5.643434 -0.30455,1.142458 -0.27349,3.259315 0.0833,5.727413 0.21591,1.489881 0.14205,2.111015 -0.3663,3.118348 l -0.63582,1.257891 -0.40437,-5.08245 c -0.51403,-6.461059 -0.67521,-6.695745 -4.51714,-6.574724 -2.07706,0.06543 -2.91182,-0.07564 -4.03477,-0.681813 -1.63585,-0.882981 -3.94636,-0.760888 -4.64171,0.245269 -0.2716,0.393105 -1.1989,0.708606 -2.59404,0.882666 -1.19417,0.148987 -2.23195,0.463476 -2.30612,0.698866 -0.0739,0.23539 -0.30172,0.318901 -0.50551,0.185579 -0.21914,-0.143274 -0.26952,-0.0692 -0.12311,0.181147 0.15531,0.264674 -0.005,0.423549 -0.42672,0.423549 -0.37066,0 -0.91499,0.389246 -1.2097,0.864991 -0.49623,0.801428 -0.59074,1.82445 -0.55968,6.05884 0.0149,2.038887 -0.36099,3.881182 -0.70949,3.476354 -0.14773,-0.171275 -0.59983,-1.419007 -1.00515,-2.772741 -1.25705,-4.198133 -0.8451,-7.03373 1.308,-9.002739 0.60135,-0.549987 0.72881,-0.823273 0.38202,-0.819827 -0.55058,0.0055 -1.7779,0.712444 -1.25345,0.722045 0.16857,0.0032 -0.10038,0.344652 -0.5985,0.759028 -1.48888,1.239126 -1.7709,2.965755 -1.07618,6.585808 0.32899,1.714032 0.56555,3.529146 0.52578,4.033585 -0.3877,4.915163 0.0492,6.768039 1.68244,7.147772 0.83431,0.193881 0.96689,0.48162 1.51066,3.276017 0.83658,4.300031 0.79908,6.874973 -0.10796,7.47477 -0.38751,0.256054 -0.99965,0.978923 -1.36027,1.60638 -0.50703,0.882089 -1.37751,1.455894 -3.83846,2.530033 -3.94354,1.721252 -8.11101,4.359742 -10.61291,6.719172 l -1.90285,1.794497 -0.56441,-0.852611 c -0.31043,-0.468938 -0.86973,-1.175584 -1.24266,-1.570332 -0.67331,-0.71238 -0.66271,-0.715855 1.41482,-0.467149 2.46186,0.294705 3.30595,-0.238728 3.00724,-1.900506 -0.0985,-0.547076 -0.56081,-4.048832 -1.02768,-7.781678 -1.23565,-9.879833 -1.22372,-9.80044 -1.89637,-12.628367 -1.60365,-6.742627 -2.613953,-9.679819 -4.068982,-11.829451 -0.428992,-0.633896 -0.78014,-1.298348 -0.78014,-1.476561 0,-0.759426 -3.456573,-3.823848 -5.3369,-4.731458 -3.256908,-1.572044 -8.365619,-1.211333 -10.334699,0.729703 -0.429939,0.423719 -0.82427,0.729126 -0.876355,0.678683 -0.562708,-0.544378 -3.908785,2.57607 -3.908785,3.645304 0,0.38976 -0.140156,0.617318 -0.310427,0.50568 -0.290729,-0.190061 -0.880711,0.855992 -0.63165,1.119613 0.0625,0.06665 1.292467,-1.101067 2.731985,-2.59494 2.167098,-2.248808 2.969057,-2.831001 4.661082,-3.383765 3.018661,-0.986165 6.447411,-0.8547 8.631404,0.330944 1.664639,0.903676 5.783715,5.164943 5.997339,6.204284 0.05682,0.275711 0.620475,1.90455 1.252883,3.619643 1.132995,3.072616 2.030635,6.491943 2.648305,10.088776 0.60911,3.546484 2.37635,18.317795 2.21241,18.491264 -0.26232,0.277612 -5.354406,-0.673906 -7.170186,-1.33985 C 95.489426,52.22005 95.4756,52.201251 95.4756,50.579475 c 0,-1.150675 0.241675,-1.972038 0.815368,-2.770731 2.131112,-2.966918 2.98866,-6.035614 2.994417,-10.715344 0.0041,-3.756536 -0.385808,-6.40631 -1.247768,-8.467917 -0.321034,-0.767683 -0.625968,-1.610242 -0.677864,-1.872355 -0.09281,-0.470531 -1.40838,-2.41236 -2.721094,-4.017521 -0.63449,-0.775843 -1.590204,-1.123885 -1.590204,-0.579126 0,0.135476 0.667257,0.922776 1.482814,1.749558 1.279588,1.297338 2.659123,3.587938 2.885361,4.791119 0.490926,2.610655 1.177501,7.152964 1.178448,7.795871 9.1e-4,0.687893 -0.187506,0.824664 -1.125795,0.820761 -0.619717,-0.0026 -2.34199,-0.415298 -3.827191,-0.917161 -3.689459,-1.246724 -4.364027,-1.200573 -8.048108,0.550631 -1.273527,0.605338 -3.442197,0.755652 -4.005966,0.277661 -0.296222,-0.251207 -1.198714,-1.387174 -2.005464,-2.52437 l -1.466716,-2.067623 1.311976,-2.701616 c 0.721615,-1.485886 1.697594,-3.031791 2.169068,-3.435342 1.457813,-1.248066 4.227091,-2.635679 6.944245,-3.479651 1.430162,-0.444244 2.705772,-0.916136 2.834507,-1.048652 0.463652,-0.477251 0.446227,-4.219922 -0.02083,-4.384496 -0.318381,-0.112285 -0.427665,0.247549 -0.382778,1.259451 0.117429,2.640798 0.162885,2.581267 -2.417959,3.197804 -2.303125,0.550322 -5.70909,2.093775 -5.961978,2.701733 -0.06629,0.157495 -0.706652,0.750722 -1.424668,1.31828 -1.346825,1.064421 -3.366134,4.346281 -3.371873,5.479918 -0.0021,0.353109 -0.220652,0.642014 -0.486191,0.642014 -0.721425,0 -0.933932,0.936312 -0.940561,4.145652 -0.0073,3.122464 0.436567,4.143749 1.893244,4.363453 0.900977,0.135915 1.540582,2.348238 1.582818,5.476201 l 0.02841,2.06221 -1.719943,0.241412 c -2.193899,0.307938 -4.418575,2.037543 -5.480371,4.260765 -0.432212,0.905088 -0.919539,1.693637 -1.082612,1.752331 -1.338681,0.481389 -0.609679,-13.075265 1.168978,-21.737221 0.77692,-3.783254 2.480291,-8.874741 3.332724,-9.961528 0.377854,-0.481815 0.16099,-1.242348 -0.353421,-1.242348 -0.53979,0 -2.546069,5.358924 -3.502445,9.355047 -1.283566,5.363147 -2.102873,12.359 -2.206077,18.836365 l -0.08523,5.291585 -1.19057,0.656531 c -2.235813,1.23291 -5.270535,4.17272 -6.286213,6.089595 -0.551344,1.040476 -1.205721,2.939 -1.454214,4.218943 l -0.451909,2.327168 -0.603808,-2.185518 c -1.198639,-4.344609 -3.25394,-7.777331 -5.597612,-9.351719 -0.778795,-0.523168 -2.4792,-1.966548 -3.778711,-3.207516 l -2.362703,-2.256302 0.792564,-2.066229 c 0.681216,-1.775849 1.023178,-2.189866 2.433348,-2.945955 3.848607,-2.063529 6.498681,-7.966734 6.671216,-14.860676 0.07765,-3.105883 0.0041,-3.601177 -0.666348,-4.508039 -0.631783,-0.853965 -0.722922,-1.334592 -0.563333,-2.970672 0.181066,-1.856312 0.127655,-2.025261 -1.089449,-3.450803 -1.427036,-1.671303 -3.557581,-2.677687 -4.014105,-1.8961 -0.162695,0.278449 -0.526476,0.35857 -0.912303,0.200902 -3.399914,-1.389395 -6.661693,-0.706821 -6.816664,1.426493 -0.08087,1.113231 -0.233871,1.2449 -2.731119,2.350134 -1.490958,0.659884 -1.669449,0.878242 -2.167009,2.651012 -0.647522,2.307039 -0.691387,3.379935 -0.130118,3.181978 0.226655,-0.07994 0.601061,-1.033054 0.831997,-2.11803 0.455981,-2.142167 1.002836,-2.755484 2.952155,-3.310874 1.5206,-0.433238 1.944924,-0.912829 2.100767,-2.374482 0.178983,-1.678342 1.944386,-2.022766 4.974055,-0.970421 2.228326,0.774001 3.190439,0.770943 2.735064,-0.0087 -0.3563,-0.61 1.333548,0.430094 2.384907,1.467893 0.852244,0.84125 0.955088,1.187042 0.902681,3.034958 -0.04451,1.570851 0.124436,2.39998 0.685118,3.359709 0.763945,1.307897 0.98651,3.700052 0.430639,4.628675 -0.372816,0.622808 -1.542968,0.432514 -4.392498,-0.714315 -2.022808,-0.814105 -2.223011,-0.828149 -5.086538,-0.356816 -3.97331,0.654003 -6.170784,0.355041 -7.872515,-1.071043 -2.239734,-1.876937 -2.973496,-1.342809 -0.803512,0.584892 l 1.294646,1.150096 -0.774534,2.544579 c -0.984597,3.234668 -0.972191,3.946584 0.108905,6.242098 1.476792,3.135647 4.859474,5.93179 7.908244,6.536963 1.025242,0.20351 1.254757,0.386961 1.071001,0.856075 -0.751161,1.917631 -1.499197,4.4679 -1.708522,5.824877 -0.215973,1.400261 -0.169703,1.559174 0.454295,1.559174 1.29849,0 4.126696,4.610924 4.464964,7.279362 0.103224,0.813496 -0.06629,2.317127 -0.396376,3.518652 l -0.576459,2.098115 -1.768524,-2.50427 C 44.357249,59.189561 39.801297,54.043886 36.099746,51.17809 c -1.287221,-0.996578 -2.34039,-1.975333 -2.34039,-2.175008 0,-0.199674 0.492308,-1.120163 1.094032,-2.045524 1.44626,-2.224197 2.200149,-4.406316 3.054147,-8.840333 0.844251,-4.383534 0.847755,-4.467406 0.185802,-4.467406 -0.298931,0 -0.520075,0.331092 -0.520075,0.778648 0,0.650539 -0.08561,0.703511 -0.520093,0.321946 -0.286051,-0.251189 -0.520074,-1.014304 -0.520074,-1.69581 0,-1.291259 -0.466114,-1.66136 -0.829705,-0.658803 -0.409143,1.128115 -0.200139,2.03204 0.68686,2.97056 0.876317,0.927217 0.887737,1.002032 0.487175,3.193392 -0.225614,1.234158 -0.746426,3.224882 -1.157387,4.423825 -0.657048,1.916868 -0.8877,2.218173 -1.911586,2.497115 -0.847623,0.230923 -1.272088,0.622111 -1.56026,1.437985 -0.32217,0.912088 -1.023784,1.45449 -3.768133,2.913073 -7.415793,3.941385 -10.133889,6.497132 -12.557541,11.807493 -1.303434,2.855924 -4.901803,13.877174 -7.8349174,23.99724 l -0.7661239,2.643381 0.7775826,1.39213 c 0.6675979,1.19522 0.74904,1.72945 0.5757199,3.77676 -0.2685695,3.17274 0.2655391,8.795656 0.9729868,10.243186 0.706652,1.4459 2.30813,2.50349 4.259903,2.81317 1.317543,0.20905 2.017671,0.76992 2.134489,1.70995 0.01875,0.15132 0.03428,4.98017 0.03428,10.73078 0,9.45531 0.05436,10.45563 0.569868,10.45563 0.51996,0 0.554412,-0.96624 0.393176,-11.03337 l -0.176711,-11.03336 0.907057,0.25834 c 1.202748,0.34256 4.643949,1.20646 6.801343,1.70745 2.141918,0.4974 12.235082,0.57853 20.11001,0.16167 5.455762,-0.28881 6.133904,-0.25216 9.114766,0.49245 1.771271,0.44245 3.435635,0.7171 3.698608,0.61033 0.262963,-0.10674 0.569034,0.0566 0.680174,0.36301 0.111746,0.30642 0.20209,4.58831 0.20209,9.51531 0,7.90975 0.0644,8.95817 0.54642,8.95817 0.486001,0 0.533919,-1.03365 0.433347,-9.35719 l -0.11364,-9.35718 1.150607,-0.40148 c 0.783927,-0.27355 1.089051,-0.57115 0.957418,-0.93408 -0.115534,-0.31952 -0.04546,-0.43555 0.178036,-0.29003 0.573883,0.37534 2.244089,-1.54414 2.747326,-3.15747 0.389975,-1.25013 0.591876,-1.44935 1.469935,-1.44935 0.559867,0 1.441525,-0.26475 1.959137,-0.58833 1.760286,-1.10024 3.493089,-4.918166 3.497824,-7.706876 l 0.0021,-1.14134 8.581421,-0.18848 c 4.719778,-0.10368 8.625722,-0.14853 8.679871,-0.0997 0.05493,0.0489 -0.05682,0.82623 -0.248682,1.72747 -0.529753,2.50168 -1.466148,13.102456 -1.227503,13.898056 0.115534,0.3865 0.12311,0.70272 0.01638,0.70272 -0.608164,0 -10.016052,-2.05115 -13.590773,-2.96311 -2.31199,-0.58983 -4.464883,-1.0724 -4.784212,-1.0724 -0.319329,0 -1.226556,-0.33018 -2.015881,-0.73373 -1.609712,-0.82286 -1.998475,-0.8959 -1.998475,-0.37532 0,0.4515 1.364628,1.41192 2.265378,1.59442 0.375012,0.076 0.91575,0.22344 1.201934,0.3277 1.991145,0.72577 15.937971,3.819 18.854546,4.18168 1.844568,0.22939 1.853281,0.22565 2.240888,-0.95079 0.214023,-0.64959 0.491115,-2.23356 0.615551,-3.5199 l 0.226523,-2.33883 1.80309,1.91627 1.80309,1.91626 0.641309,10.18048 c 0.512706,8.1373 0.738471,10.18049 1.124848,10.18049 0.510055,0 0.461568,-1.92182 -0.291108,-11.55623 -0.174248,-2.21952 -0.316677,-4.96745 -0.318193,-6.10652 l -0.0031,-2.07099 2.156606,0.7102 c 2.196645,0.72339 3.417863,0.77575 3.419183,0.14661 3.6e-4,-0.19265 -0.975219,-0.56092 -2.168024,-0.81837 -3.657773,-0.78945 -7.553205,-4.34531 -8.135592,-7.42638 -0.362133,-1.91551 0.591876,-1.32227 2.628629,1.63486 1.038481,1.50768 2.091641,2.74123 2.340381,2.74123 0.711008,0 0.572556,-0.3005 -1.41804,-3.07736 -2.217706,-3.09367 -3.412575,-5.491896 -3.264521,-6.552266 0.176142,-1.2645 0.799837,-1.11126 1.46217,0.35946 0.855899,1.90036 5.017609,8.169566 5.423399,8.169566 0.646613,0 0.304556,-0.79555 -1.542854,-3.58871 -2.064084,-3.120766 -3.674857,-6.154656 -3.674857,-6.921566 0,-1.11686 1.038482,-0.37486 2.001828,1.43039 0.56536,1.05931 1.778279,2.91657 2.695601,4.127206 0.917265,1.21066 1.720322,2.27273 1.784718,2.36017 0.0644,0.0875 0.26857,-8.8e-4 0.453614,-0.19717 0.21762,-0.23026 -0.01119,-0.80507 -0.647181,-1.62643 -1.698352,-2.192986 -4.208302,-6.246446 -4.208302,-6.796446 0,-0.93385 0.575587,-0.57202 2.583116,1.62405 1.081664,1.18314 2.338808,2.36196 2.793823,2.61963 0.45494,0.25767 0.935072,0.73417 1.066702,1.0589 0.13069,0.32475 0.33505,7.097916 0.45172,15.051516 0.16289,11.08084 0.31365,14.49666 0.64586,14.61342 0.83506,0.29357 0.4841,-24.32051 -0.4629,-32.467986 -0.2,-1.72064 -0.15531,-1.92557 0.42293,-1.92165 0.50021,0.004 1.03091,1.00428 2.3418,4.41634 2.17152,5.652136 3.2747,7.413166 5.29069,8.445796 1.37183,0.70264 1.92211,0.77649 4.253,0.57082 2.51971,-0.22235 2.72322,-0.1846 3.45639,0.64118 0.96594,1.08797 3.47579,1.92427 7.32185,2.43978 4.54104,0.60864 18.13804,0.83186 20.97681,0.34437 5.05593,-0.86825 5.89758,-0.99224 6.01247,-0.88579 0.0644,0.0601 0.26819,2.55708 0.45134,5.54857 0.72957,11.90887 0.80874,12.71556 1.26577,12.87504 0.35361,0.12341 0.40759,-0.52997 0.25512,-3.08943 z m -26.18783,-15.53731 c -4.84318,-0.45767 -6.883,-0.86482 -8.56559,-1.70964 -1.39285,-0.69932 -1.45062,-1.13753 -0.1894,-1.43394 2.86252,-0.67264 7.8596,-2.1887 10.22574,-3.1024 1.48603,-0.57384 3.05019,-1.0507 3.47594,-1.05971 0.42578,-0.01 1.08603,-0.0233 1.46748,-0.0316 1.41917,-0.0311 4.88014,-0.81392 5.71941,-1.29366 0.47767,-0.27297 1.72657,-0.82295 2.77532,-1.22215 1.0489,-0.39919 3.31123,-1.414156 5.02751,-2.255486 4.66052,-2.2846 5.0321,-2.43676 7.19452,-2.94602 2.2726,-0.5352 2.73206,-1.28744 0.60173,-0.98511 -1.16898,0.16591 -1.4546,0.0737 -1.78283,-0.57526 -0.33845,-0.66924 -0.24016,-0.90603 0.7345,-1.76688 1.51255,-1.336 8.21429,-4.978907 8.53513,-4.639429 0.82238,0.870209 1.43603,11.299609 0.86783,14.751635 -0.43808,2.66223 -1.19246,4.58965 -1.98942,5.08352 -0.26421,0.16373 -0.41403,0.41137 -0.33278,0.55031 0.0814,0.13892 -0.26667,0.26519 -0.77275,0.2806 -2.28142,0.0695 -6.06403,0.56223 -6.58649,0.85811 -0.31611,0.17904 -0.69415,0.32771 -0.83999,0.33039 -0.89416,0.0163 -3.0293,0.53867 -3.03173,0.74178 -0.002,0.13358 -0.92294,0.2837 -2.04747,0.33355 -1.12447,0.0499 -2.37264,0.21909 -2.77363,0.37605 -1.01045,0.39553 -12.46269,0.21148 -17.71307,-0.28468 z m -38.680605,-7.50005 c 0.297547,-2.71527 0.547177,-5.151106 0.554753,-5.412976 0.0083,-0.26186 0.256258,-0.003 0.55267,0.5761 0.491115,0.95926 0.487327,1.15374 -0.04356,2.201186 -0.525775,1.03676 -0.532783,1.30124 -0.07387,2.70814 0.393194,1.20318 0.410619,1.55918 0.07576,1.55918 -0.28751,0 -0.490168,0.84581 -0.60324,2.51803 -0.09281,1.38493 -0.309669,2.7469 -0.47994,3.02663 -0.556647,0.914 -0.550018,-2.00885 0.01617,-7.17629 z m -36.011835,5.54451 c -1.450332,-0.34637 -3.371602,-0.51453 -4.854138,-0.42483 -9.939633,0.60125 -19.616168,0.85846 -19.616428,0.52141 -8.3e-5,-0.11521 -0.957456,-0.2374 -2.127506,-0.27151 -1.170058,-0.0341 -2.30123,-0.20747 -2.51375,-0.3852 -0.212507,-0.17775 -2.801161,-0.95805 -5.752549,-1.73403 -6.551766,-1.72258 -7.10529,-2.13302 -7.6253189,-5.65424 C 9.2601073,96.819114 9.5367263,88.312654 10.25158,88.312654 c 1.389629,0 10.674844,6.15272 9.975435,6.6101 -0.690497,0.45152 0.0031,1.17524 0.89931,0.93744 0.867377,-0.23035 2.282343,0.0691 7.258697,1.53637 1.716288,0.50603 3.510579,0.93913 3.987325,0.96246 0.47674,0.0234 0.9624,0.18056 1.079222,0.34938 0.11686,0.16885 0.740934,0.36196 1.386902,0.42916 0.645968,0.0673 1.876596,0.29931 2.734754,0.51578 3.197185,0.806506 9.703585,0.916916 13.652062,0.23165 2.034433,-0.35308 4.280735,-0.55613 4.99178,-0.45125 2.71143,0.4 7.204477,1.459636 7.599907,1.792346 0.594527,0.50019 0.194325,1.29166 -0.784685,1.55159 -1.057232,0.28078 -1.092271,0.85462 -0.06061,1.00949 1.526755,0.22943 0.872188,1.2013 -1.040186,1.54457 -2.225377,0.39945 -2.383223,0.95729 -0.271032,0.95729 1.166327,0 1.504595,0.12372 1.367848,0.50059 -0.24622,0.67894 -1.686419,1.33373 -2.933506,1.33373 -0.563087,0 -1.023898,0.16508 -1.023898,0.36686 0,0.20178 0.234099,0.36686 0.520093,0.36686 0.285995,0 0.520093,0.15412 0.520093,0.34249 0,0.79621 -3.326466,0.5972 -7.774629,-0.46511 z m 56.7768,-2.05694 c -1.47277,-0.95023 -2.47118,-2.85226 -5.00156,-9.528956 -1.65915,-4.37803 -2.02888,-5.68607 -1.67279,-5.91898 0.63715,-0.41663 4.10186,-1.00543 7.60041,-1.2916 2.71675,-0.22223 2.99879,-0.18046 3.60765,0.53426 0.36327,0.42644 0.79246,0.77534 0.95345,0.77534 0.48562,0 0.32974,-0.97856 -0.23486,-1.47433 -0.31857,-0.27973 -0.44244,-0.74835 -0.31251,-1.18163 0.16288,-0.54424 -0.23353,-1.168103 -1.63907,-2.577308 -1.45327,-1.457003 -1.72373,-1.891466 -1.24966,-2.008132 0.33258,-0.08188 1.05874,0.193224 1.61369,0.611347 1.93601,1.458642 2.34004,0.868486 0.66062,-0.964921 -0.8129,-0.887496 -0.95703,-1.209775 -0.54054,-1.209775 0.31232,0 0.67256,0.17947 0.80059,0.398826 0.12879,0.219351 0.5165,0.320346 0.86329,0.224429 0.6879,-0.190366 1.6224,0.729958 2.53311,2.495093 0.56669,1.098297 1.95921,4.509671 1.95921,4.799661 0,0.0841 -0.53335,0.15302 -1.18507,0.15302 -1.37675,0 -2.28207,0.30667 -2.28207,0.77297 0,0.18019 0.99985,0.32761 2.22189,0.32761 1.22201,0 4.14753,0.2665 6.50107,0.5922 5.01032,0.69337 10.83343,0.53234 15.00154,-0.41485 1.88889,-0.42924 3.78535,-0.5793 6.06768,-0.4801 3.65797,0.15898 4.95013,0.69758 6.2966,2.62456 l 0.75816,1.08507 -0.81745,0.65249 c -0.44963,0.35887 -0.93109,0.57819 -1.07011,0.48737 -0.21213,-0.13878 -1.32675,0.28961 -5.09445,1.95817 -0.35721,0.15816 -0.41137,0.003 -0.22065,-0.63313 0.2413,-0.80426 0.19073,-0.83227 -1.10723,-0.61268 -1.42316,0.24079 -3.5952,1.23155 -3.95849,1.80565 -0.11742,0.18437 -0.35076,0.34345 -0.52009,0.35354 -0.51422,0.0305 -1.86824,0.75521 -1.86824,0.999876 0,0.12615 -0.27312,0.24876 -0.60684,0.27248 -0.33372,0.0237 -3.33723,1.05512 -6.67445,2.29198 -11.8745,4.40105 -18.82897,5.72815 -21.38286,4.08045 z m -44.199739,-3.3234 c -0.187506,0 -0.243,-0.32889 -0.12311,-0.73085 0.149626,-0.49956 -0.03977,-0.99299 -0.600399,-1.55917 -0.450772,-0.45558 -0.514411,-0.5807 -0.14205,-0.27804 0.536571,0.43537 0.469144,0.1672 -0.323117,-1.284016 l -1.001169,-1.83433 1.403266,1.16991 c 0.771806,0.64345 1.626948,1.221266 1.900252,1.284026 0.273305,0.0628 0.611574,0.2792 0.75173,0.48099 0.16099,0.2328 0.256637,0.21177 0.260046,-0.0576 0.0031,-0.23344 -0.774836,-1.115516 -1.728277,-1.960206 -0.966888,-0.85647 -1.73358,-1.84521 -1.73358,-2.23534 0,-0.38477 0.111746,-0.69957 0.248493,-0.69957 0.65381,0 3.184879,1.22873 3.040442,1.47603 -0.193756,0.33187 0.883552,0.83497 1.160644,0.54191 0.104171,-0.11026 -0.157202,-0.45676 -0.578807,-0.76998 -0.422551,-0.31321 -1.349287,-1.13407 -2.059443,-1.82413 -0.710061,-0.69005 -1.417282,-1.25543 -1.571454,-1.2564 -0.153414,-8.8e-4 -0.183718,-0.16685 -0.06629,-0.36862 0.415923,-0.71224 2.146644,-0.35368 3.492162,0.72352 1.394743,1.11667 2.228786,1.39504 2.228786,0.74394 0,-0.20178 -0.125004,-0.36687 -0.277093,-0.36687 -0.15152,0 -0.474447,-0.5773 -0.715554,-1.28289 -0.286941,-0.83934 -0.725592,-1.35915 -1.268981,-1.50345 -1.058748,-0.28118 -1.776385,-1.15906 -1.331673,-1.62944 0.416112,-0.44023 1.843432,-0.53779 2.639784,-0.18041 0.520661,0.23365 0.614225,0.0453 0.659681,-1.32611 0.04735,-1.418205 0.08712,-1.329568 0.348307,0.7862 0.628051,5.06772 0.717827,7.81328 0.304935,9.31467 -0.82105,2.985936 -2.770869,5.253896 -4.115156,4.786686 -0.253986,-0.0883 -0.615551,-0.1605 -0.803436,-0.1605 z m 69.276919,-1.29985 c 0.11364,-0.31136 0.27709,-0.49012 0.36497,-0.39722 0.27198,0.28784 4.02042,-1.21389 5.34501,-2.141386 1.39039,-0.97351 3.58196,-1.55167 3.88903,-1.02594 0.19793,0.33891 -3.81459,2.641996 -4.6822,2.687486 -0.25474,0.0133 -1.32125,0.33259 -2.37006,0.70945 -2.38419,0.85665 -2.8067,0.88447 -2.54673,0.16761 z M 61.191072,99.441484 c -0.810822,-0.22964 -0.82105,-0.28554 -0.550397,-3.02163 0.151521,-1.53321 0.289404,-3.88624 0.306071,-5.22896 0.01657,-1.34272 0.125004,-2.37949 0.240349,-2.30395 0.115534,0.0755 0.295654,-1.957428 0.400013,-4.517724 0.172355,-4.211106 -0.07955,-9.435806 -0.62502,-12.978133 -0.179931,-1.173945 -0.109853,-1.353029 0.598504,-1.527803 1.738884,-0.428561 8.25732,-1.117302 8.467705,-0.894691 0.20209,0.21383 -1.384326,16.626725 -1.845137,19.089021 -0.125004,0.67196 -0.35664,0.96236 -0.665552,0.83697 -0.260046,-0.10562 -0.472932,-0.0536 -0.472932,0.11553 0,0.16915 -0.273115,0.30644 -0.606839,0.30506 -1.266329,-0.005 -1.473533,0.1206 -1.473533,0.89463 0,0.43811 0.248493,1.08699 0.551912,1.44195 0.510623,0.59699 0.500206,0.63107 -0.138262,0.45448 -1.162539,-0.32169 -2.186361,0.50298 -2.030882,1.63599 0.07387,0.5448 -0.0322,1.2161 -0.239781,1.49176 -0.692068,0.92352 -1.150795,2.85566 -0.869157,3.66116 0.298494,0.85395 0.207014,0.90164 -1.047573,0.54634 z m -21.017415,-0.32529 c -3.247916,-0.25469 -6.331869,-0.96447 -9.698571,-2.23215 -1.329533,-0.50061 -2.687286,-0.83552 -3.017205,-0.74423 -0.329935,0.0913 -0.652521,-8.8e-4 -0.71686,-0.2054 -0.0644,-0.20426 -1.24203,-0.45655 -2.617068,-0.56066 -1.375027,-0.10409 -2.500055,-0.35897 -2.500055,-0.56639 0,-0.20743 0.803474,-2.29014 1.785495,-4.62824 2.149344,-5.117359 3.790624,-9.958714 3.528365,-10.407716 -0.105306,-0.180087 -0.316147,-0.189232 -0.468784,-0.02033 -0.399881,0.442493 -3.493039,9.179836 -3.554266,10.039816 -0.02822,0.39761 -0.150573,0.72294 -0.271808,0.72294 -0.121216,0 -0.472857,0.68013 -0.781466,1.51141 -0.346905,0.93443 -0.730952,1.44228 -1.006075,1.33033 -0.244743,-0.0996 -1.92173,-1.19176 -3.726652,-2.42706 -1.804908,-1.23529 -4.340346,-2.68547 -5.634272,-3.22262 -1.5900715,-0.660081 -2.352593,-1.174003 -2.352593,-1.585588 0,-0.633869 1.908283,-7.154673 4.67281,-15.967459 3.676802,-11.720954 5.920068,-14.578193 15.398629,-19.613142 1.756781,-0.933197 2.275827,-1.075373 2.508446,-0.687108 0.503161,0.839874 0.332852,1.71442 -0.380505,1.953984 -1.419952,0.476858 -2.089391,1.950351 -2.089391,4.598988 0,3.646046 2.204335,13.528744 3.7099,16.632631 0.343003,0.707168 0.395316,1.172181 0.159853,1.421322 -0.523237,0.55362 -2.333335,-0.231782 -3.330235,-1.444977 -0.69525,-0.846093 -0.954994,-0.955705 -1.472,-0.621189 -0.72794,0.470999 -0.926091,1.22165 -0.504903,1.912893 0.285218,0.468127 1.030224,0.634038 4.727646,1.052846 1.107366,0.125432 2.08009,0.507649 2.702733,1.062011 0.535018,0.476331 1.628842,1.048614 2.430706,1.271737 0.801864,0.223127 2.061451,0.590554 2.799047,0.8165 1.157539,0.354583 1.401676,0.323165 1.783639,-0.229529 0.53195,-0.76975 0.305256,-1.939935 -0.433973,-2.240078 -0.294119,-0.119422 -0.92342,0.05231 -1.398436,0.381638 -1.131742,0.784617 -2.900926,0.479502 -4.444917,-0.766571 -1.164318,-0.939657 -1.173448,-0.968974 -0.641119,-2.058195 0.764911,-1.565081 1.764982,-6.757586 2.253751,-11.701719 0.403119,-4.077739 0.3906,-4.288429 -0.365297,-6.147652 -0.777677,-1.912747 -2.716046,-4.121044 -3.617305,-4.121044 -0.477232,0 -1.046758,-1.058965 -0.742601,-1.380791 0.386206,-0.408635 4.800372,3.424127 8.19689,7.117269 3.101273,3.372109 8.104189,9.909735 9.301573,12.154947 0.454239,0.851749 0.859025,0.342364 1.535904,-1.932816 1.414687,-4.75528 0.979862,-7.052328 -2.168262,-11.454176 -1.122423,-1.569448 -1.987835,-2.911386 -1.923107,-2.982089 0.29679,-0.324187 3.175958,2.562656 4.70183,4.714354 2.042524,2.88026 3.795607,7.067312 4.982124,11.899202 1.062933,4.32865 1.094866,5.392186 0.187885,6.260595 -1.077062,1.031348 -0.917777,2.937411 0.358269,4.287598 0.768094,0.812689 1.282372,1.066152 1.906973,0.939815 0.798322,-0.161487 0.855331,-0.07147 0.855331,1.353691 0,3.113293 -0.810444,13.068172 -1.235079,15.169202 l -0.243568,1.20589 -2.121111,-0.26037 c -2.521104,-0.30947 -4.212535,-0.24662 -5.007867,0.18613 -0.319271,0.17372 -1.826992,0.34986 -3.350457,0.39142 -1.52346,0.0415 -2.848714,0.15889 -2.944965,0.26074 -0.09622,0.10183 -0.800103,0.0933 -1.564086,-0.019 -0.764003,-0.11228 -2.637302,-0.30202 -4.162883,-0.42165 z m 57.186002,-3.83311 c -1.376751,-1.41242 -2.683423,-2.56805 -2.903941,-2.56805 -0.607028,0 -2.493644,1.09206 -3.647167,2.11114 -0.720099,0.63615 -1.071058,0.76734 -1.174471,0.43896 -0.08144,-0.2576 0.08902,-0.64785 0.379748,-0.86722 0.289972,-0.21937 1.264057,-0.97666 2.16456,-1.68288 0.900598,-0.70622 2.127969,-1.66728 2.727667,-2.1357 l 1.090377,-0.85168 0.243379,1.76884 c 0.267244,1.94264 1.193979,3.05286 2.548361,3.05286 0.444333,0 0.8809,0.12508 0.970297,0.27794 0.333151,0.57038 0.638851,3.02385 0.376911,3.02385 -0.14963,0 -1.398725,-1.15563 -2.775437,-2.56806 z m 1.309513,-1.70261 c -1.091514,-0.30939 -0.787905,-0.93973 0.75135,-1.55961 1.372778,-0.55281 1.718428,-0.39384 2.107698,0.96931 0.21156,0.74082 0.11743,0.82494 -0.91442,0.82045 -0.632596,-0.003 -1.507625,-0.10633 -1.944552,-0.23015 z m -26.071376,-0.40686 c 0.0031,-0.35311 0.926545,-4.68669 2.052246,-9.630197 3.578755,-15.715443 3.594437,-15.775177 4.14222,-15.775177 0.411756,0 16.623828,3.808711 17.909648,4.207538 0.244705,0.07592 0.225575,1.320566 -0.06061,3.913447 -0.2305,2.09116 -0.431074,5.713724 -0.445658,8.05014 l -0.02652,4.248029 -2.609651,2.1721 c -4.360164,3.62913 -3.714423,3.45614 -12.900845,3.45614 -7.453543,0 -8.066328,-0.0488 -8.061309,-0.64202 z m -2.059406,-4.13731 c -0.01511,-1.373936 -0.22728,-2.70317 -0.497554,-3.118351 -0.401529,-0.616828 -0.341299,-1.982092 0.408157,-9.249305 0.483728,-4.689114 0.770859,-8.640539 0.63809,-8.780949 -0.132581,-0.140407 -2.227707,-0.0018 -4.655591,0.308324 -2.427883,0.309986 -4.508804,0.510642 -4.624263,0.445902 -0.437325,-0.245216 0.402097,-4.035579 1.326749,-5.990265 1.154205,-2.44004 4.06379,-5.088221 7.315546,-6.65811 2.113422,-1.020314 2.230073,-1.036657 3.283802,-0.460097 1.421448,0.777746 4.833455,4.231512 6.373828,6.45181 0.666879,0.961109 1.415767,1.747468 1.66426,1.747468 0.248683,0 0.560814,-0.61338 0.693584,-1.363064 0.507971,-2.864593 1.862372,-4.41782 3.478127,-3.988713 0.90931,0.241492 2.787024,2.800747 4.061024,5.535209 0.982988,2.109666 1.851577,5.236856 1.544938,5.561409 -0.115534,0.121463 -1.267466,-0.0618 -2.5616,-0.407259 -4.24427,-1.132992 -9.89709,-2.402666 -10.697097,-2.402666 -0.737714,0 -0.909121,0.542402 -2.868069,9.079899 -1.145871,4.993944 -2.521807,11.10816 -3.057582,13.587148 -0.945108,4.37274 -0.986397,4.47128 -1.387168,3.30178 -0.227091,-0.663 -0.424824,-2.28308 -0.439408,-3.60017 z m 79.80556,2.3947 c -0.80286,-0.40355 -1.55478,-1.03495 -1.67088,-1.4031 -0.11554,-0.36815 -0.90818,-0.98553 -1.76029,-1.37194 l -1.5491,-0.70258 0.8576,-1.196108 c 0.47161,-0.657858 1.19474,-2.259919 1.60687,-3.560138 1.04833,-3.307101 2.255,-11.672248 2.25608,-15.640237 7e-4,-2.94476 -0.0985,-3.48317 -0.8595,-4.65736 -0.47331,-0.730222 -1.17977,-1.481665 -1.57032,-1.669873 -0.4449,-0.214517 -0.93374,-1.094019 -1.31008,-2.357175 -0.33012,-1.108239 -0.98886,-2.788038 -1.46349,-3.732888 -0.47483,-0.944848 -0.86329,-1.805222 -0.86329,-1.911937 0,-0.364057 5.99422,3.178802 8.21421,4.854981 1.21766,0.919425 2.80968,2.468962 3.53764,3.443412 1.67884,2.247296 4.19199,7.710952 5.40247,11.74515 1.14303,3.809601 2.96252,12.164888 2.73414,12.555851 -0.0909,0.156423 -0.45626,0.284408 -0.81082,0.284408 -0.85988,0 -7.79391,3.692404 -9.54272,5.081554 -0.76272,0.60592 -1.46823,1.07242 -1.56786,1.03669 -0.10038,-0.0358 -0.8379,-0.39515 -1.64058,-0.79871 z m -26.28257,-0.24544 -3.83352,-0.43216 -1.13034,-3.035081 c -1.50119,-4.030606 -3.08702,-5.870377 -5.33414,-6.188411 -1.34227,-0.189978 -1.6902,-0.121469 -1.86767,0.367833 -0.11932,0.330705 -0.58676,0.749642 -1.03754,0.930966 -1.36765,0.550231 -1.08204,2.043817 0.72711,3.801321 0.8809,0.855681 1.44058,1.675752 1.30023,1.904992 -0.13826,0.22711 -1.90845,0.5005 -4.0604,0.62738 -3.9402,0.2323 -8.75887,1.27483 -10.633587,2.30061 l -1.072384,0.58676 0.187506,-8.196971 c 0.238266,-10.393869 1.050793,-15.80422 3.052755,-20.327172 2.06124,-4.656813 7.75902,-9.728903 14.27854,-12.710562 1.67165,-0.764532 3.19293,-1.390058 3.38057,-1.390058 0.1875,0 0.34111,0.716494 0.34111,1.592207 0,2.284316 0.8737,5.555005 4.96482,18.585345 3.19658,10.18126 3.56215,11.599885 3.07243,11.923099 -2.82799,1.866538 -3.34539,4.487496 -1.31084,6.640252 0.96178,1.01776 1.44361,1.24734 2.61765,1.24734 2.81481,0 4.4556,-1.717425 4.06623,-4.256153 -0.22785,-1.485332 -1.61217,-3.269958 -2.78657,-3.592382 -0.60248,-0.165404 -0.98071,-1.016634 -2.00995,-4.523774 -0.69737,-2.376016 -2.28542,-7.601787 -3.52919,-11.61282 -1.24379,-4.011037 -2.14252,-7.147729 -1.99719,-6.970426 0.14584,0.177297 1.36558,1.890706 2.71162,3.807574 2.81076,4.002634 7.99641,9.992411 8.49781,9.815575 0.44471,-0.156824 1.80934,-3.73368 2.68639,-7.040554 0.94132,-3.549866 1.79116,-9.764027 1.73396,-12.680367 -0.0265,-1.31154 -0.0341,-2.511217 -0.0208,-2.665949 0.0145,-0.154728 0.78904,0.127577 1.72108,0.627345 2.09844,1.125138 3.98613,3.374073 5.25235,6.257547 1.53679,3.499474 1.5527,3.699131 0.35418,4.448207 -2.3219,1.451248 -3.01101,5.815421 -2.94715,18.664263 0.018,3.628848 0.11364,4.232637 0.95344,5.991692 0.51347,1.075898 0.93337,2.025161 0.93337,2.109471 0,0.0843 -0.38448,0.153291 -0.85457,0.153291 -0.50798,0 -1.0097,-0.306465 -1.23679,-0.755716 -0.46176,-0.912936 -1.98166,-0.851101 -2.54656,0.103605 -0.62729,1.060071 0.14205,1.386961 3.61987,1.536291 3.82293,0.1642 3.44525,0.0801 3.44525,0.76671 0,0.37403 -0.361,0.5538 -1.12693,0.56123 -0.61972,0.006 -3.54527,0.41335 -6.50109,0.90519 -5.60439,0.93257 -6.78456,0.94284 -14.06187,0.12246 z m 22.72998,-1.03859 c 0,-0.20177 0.16477,-0.36686 0.36724,-0.36686 0.2019,0 0.27066,0.16509 0.15342,0.36686 -0.11743,0.20178 -0.28316,0.36688 -0.36725,0.36688 -0.0833,0 -0.15341,-0.1651 -0.15341,-0.36688 z m -20.88964,-2.339548 c -0.75911,-0.497127 -1.28394,-2.338607 -0.9506,-3.335495 0.28997,-0.867312 1.96929,-2.265364 2.30036,-1.91507 0.1288,0.136579 -0.0246,0.551248 -0.34111,0.921478 -0.89075,1.041478 -0.74245,2.867481 0.29111,3.58403 0.79378,0.550352 0.93753,0.551888 1.70726,0.01822 1.25042,-0.866847 1.44531,-1.962199 0.57198,-3.212207 -0.8648,-1.237678 -0.37766,-1.428057 0.65438,-0.255797 0.39831,0.452344 0.70703,1.302715 0.70703,1.947635 0,2.611964 -2.58669,3.788564 -4.94033,2.247197 z M 8.4483796,88.107574 c 0,-0.314572 0.158528,-0.468251 0.3523791,-0.341514 0.1937943,0.126734 0.2626034,0.384114 0.152846,0.571944 -0.2972068,0.50886 -0.505263,0.41398 -0.505263,-0.23043 z M 139.51015,87.784013 c 0,-0.08897 0.15531,-0.263812 0.34679,-0.388517 0.19073,-0.124705 0.34679,-0.0519 0.34679,0.16178 0,0.213684 -0.15531,0.388518 -0.34679,0.388518 -0.19073,0 -0.34679,-0.0728 -0.34679,-0.161781 z m 3.14667,-4.099206 c -0.43031,-1.808033 -0.45929,-7.149771 -0.0606,-11.16185 0.43107,-4.33783 2.40792,-6.965564 4.39418,-5.840797 1.44512,0.818291 1.99787,2.676817 1.72922,5.813561 -0.56044,6.544853 -1.83074,11.719125 -3.39257,13.820049 l -0.74264,0.99892 -0.7773,-1.031494 c -0.42748,-0.567324 -0.94511,-1.736602 -1.15023,-2.598389 z m -15.30196,2.020411 c -0.48259,-0.953969 -0.053,-1.475547 0.97939,-1.189836 0.85438,0.236415 0.99776,0.845901 0.35815,1.522715 -0.59074,0.624959 -0.89075,0.55026 -1.33754,-0.332879 z M 58.664019,79.63448 c -0.664018,-0.635831 -0.866449,-2.499372 -0.310995,-2.862627 0.178036,-0.116216 0.372739,0.244079 0.433347,0.800657 0.06629,0.612249 0.350012,1.060055 0.71707,1.133714 0.498122,0.09995 0.612899,-0.162344 0.641309,-1.464321 0.02841,-1.338635 0.07765,-1.442989 0.312131,-0.668912 0.868779,2.870507 -0.159096,4.625905 -1.793051,3.061489 z M 40.86711,77.30672 c 0.117807,-0.201775 0.361092,-0.366864 0.54053,-0.366864 0.179362,0 0.32626,0.165089 0.32626,0.366864 0,0.201775 -0.243227,0.366865 -0.540548,0.366865 -0.297301,0 -0.444105,-0.16509 -0.326242,-0.366865 z m 18.7305,-4.29465 c -0.433158,-3.056737 -1.916395,-7.903851 -3.50805,-11.464653 -1.326824,-2.968331 -1.428532,-3.34782 -0.704246,-2.627859 1.789926,1.779206 3.670896,6.539655 4.366108,11.04987 0.20209,1.311541 0.450773,2.92116 0.552291,3.57693 0.102277,0.655771 0.03977,1.19231 -0.138262,1.19231 -0.178036,0 -0.433158,-0.776969 -0.567841,-1.726598 z m -31.039228,0.626004 c 0,-0.201775 0.06875,-0.366863 0.152846,-0.366863 0.08409,0 0.249345,0.165088 0.367209,0.366863 0.117807,0.201776 0.04905,0.366865 -0.152846,0.366865 -0.201957,0 -0.367209,-0.165089 -0.367209,-0.366865 z M 33.40158,71.679579 C 32.57161,69.694316 30.638729,61.404904 30.638729,59.83075 c 0,-0.854882 0.286582,-1.42405 1.066797,-2.118676 1.234681,-1.099273 1.620546,-1.156459 2.650851,-0.392881 1.583822,1.173768 2.284881,2.705469 2.218744,4.847359 -0.107011,3.465741 -1.693806,11.104659 -2.306699,11.104659 -0.110799,0 -0.50085,-0.716235 -0.866842,-1.591632 z m 61.764407,-0.971415 c -0.793208,-0.0083 -0.235424,-4.143854 1.135265,-8.41644 l 1.209131,-3.769007 -1.017079,-2.1179 c -1.122386,-2.336983 -1.239624,-2.944296 -0.56839,-2.944296 0.97257,0 4.260276,2.468053 5.221836,3.919905 l 1.0167,1.535284 -0.93317,1.173472 c -1.582629,1.9902 -2.886062,5.390964 -3.836529,10.010399 -0.178037,0.862917 -0.350012,1.009135 -0.979957,0.830457 -0.420469,-0.119275 -0.98204,-0.219118 -1.247958,-0.221874 z m 32.403743,-5.507975 c -4.39815,-5.575121 -7.39687,-10.355501 -7.71927,-12.305658 -0.16478,-1.000246 -0.28012,-2.066263 -0.25493,-2.368927 0.0246,-0.302662 0.0701,-0.967498 0.0985,-1.477414 0.0284,-0.509917 0.51422,-1.46169 1.07825,-2.115059 1.63358,-1.892518 1.78813,-4.672669 0.54017,-9.724267 -0.28902,-1.170052 -0.52558,-2.77967 -0.52558,-3.57693 0,-1.514164 -0.62484,-1.99009 -0.93962,-0.715829 -0.41194,1.666827 -1.44323,0.520991 -1.8404,-2.044786 -0.44717,-2.889884 -0.45456,-2.847716 0.4396,-2.552179 0.42899,0.14182 1.05647,0.25361 1.39436,0.248424 0.33789,-0.0051 0.53468,0.126902 0.43733,0.293524 -0.0966,0.166623 0.10985,0.38238 0.461,0.479452 0.69699,0.192882 0.94681,1.316269 1.30307,5.861854 0.26971,3.441432 1.06954,5.34474 3.18757,7.585794 1.24493,1.317309 2.21528,1.970254 3.55203,2.390284 2.61755,0.822479 3.50449,0.733312 6.56743,-0.660223 0.44718,-0.203438 0.53316,0.548579 0.61328,5.361704 0.12501,7.468508 -0.5324,12.10904 -2.57442,18.191538 l -0.90249,2.68787 -1.37278,-1.403845 c -0.75495,-0.772113 -2.34958,-2.642011 -3.54341,-4.155327 z m -35.502065,1.65089 c -0.815368,-2.903501 -2.638591,-6.284614 -4.854252,-9.002291 -1.076551,-1.320423 -2.303523,-2.265305 -4.334045,-3.337526 -4.064037,-2.145997 -5.145379,-3.409365 -3.97661,-4.646013 0.680894,-0.720408 0.976169,-0.50259 0.628809,0.463936 -0.216863,0.603346 -0.200953,0.985164 0.04735,1.147593 0.894538,0.58501 1.541339,-2.699699 1.225988,-6.22582 -0.279934,-3.129263 -1.513497,-7.198749 -2.182099,-7.198749 -0.371793,0 -0.463841,0.218637 -0.30948,0.733729 0.153414,0.511126 0.0625,0.733729 -0.30001,0.733729 -0.698508,0 -0.980904,-1.086312 -0.883931,-3.40018 0.106064,-2.531617 0.219515,-2.672885 1.261974,-1.570028 0.485811,0.514084 1.027307,0.934698 1.20326,0.934698 0.176142,0 0.208908,0.190135 0.07387,0.422517 -0.136369,0.232388 -0.02083,0.603838 0.255501,0.825446 1.387735,1.113158 1.683957,2.156731 1.683957,5.930367 v 3.713292 l 1.399668,1.466358 c 2.856287,2.992276 6.614045,3.962607 9.83364,2.539242 0.733358,-0.324227 1.371826,-0.589504 1.418797,-0.589504 0.04735,0 0.159096,1.216583 0.24944,2.703514 0.121216,1.99768 0.398498,3.147504 1.062346,4.404107 l 0.898325,1.700593 -1.175796,3.694004 c -0.646613,2.031699 -1.281671,4.684971 -1.411221,5.896155 -0.293002,2.73954 -0.767639,2.389177 -1.814833,-1.339169 z m 54.480975,-1.444196 c -0.82938,-0.265811 -2.69964,0.574694 -2.99247,1.344761 -0.0966,0.256465 -0.18959,0.0071 -0.20474,-0.554361 -0.0341,-1.2497 0.70855,-3.20894 1.46747,-3.874979 1.32789,-1.165161 4.05271,1.342596 4.05271,3.729817 v 1.110291 l -0.78014,-0.755515 c -0.42899,-0.415532 -1.12333,-0.865539 -1.54283,-1.000014 z M 74.845578,55.052631 c -0.857225,-0.572996 -1.558763,-1.235506 -1.559142,-1.472243 -9.09e-4,-0.669158 1.707632,-2.655241 2.797252,-3.251393 1.290194,-0.705939 1.362734,-0.688322 1.362734,0.330566 0,1.437236 1.21576,2.633178 4.503294,4.429728 1.718617,0.939155 3.12463,1.824573 3.12463,1.967596 0,0.143018 -0.465925,0.478238 -1.035262,0.744925 -0.700023,0.32789 -1.285459,1.061916 -1.808014,2.267041 L 81.458317,61.851 78.931131,58.972724 c -1.390009,-1.583053 -3.228517,-3.347096 -4.085685,-3.920093 z m -40.826274,1.00946 c -0.990829,-0.397183 -2.417861,-0.05758 -2.847263,0.677584 -0.362872,0.621274 -0.88003,0.451159 -0.88003,-0.289493 0,-1.350125 0.746048,-2.897248 1.594315,-3.306191 1.575014,-0.759303 3.674324,1.109443 4.476898,3.985177 l 0.255956,0.917162 -0.823191,-0.801009 c -0.452761,-0.440553 -1.252276,-0.973006 -1.776685,-1.18323 z M 85.629686,48.743762 C 82.965507,47.151158 82.681823,46.545571 82.61237,42.302328 l -0.05871,-3.637469 1.867486,-0.492637 c 1.027118,-0.270949 2.179618,-0.648643 2.561013,-0.839321 1.360273,-0.680079 3.136714,-0.978677 4.160706,-0.699372 0.572179,0.156041 2.420175,0.662898 4.106879,1.126347 l 3.066731,0.84263 -0.181825,1.927128 c -0.387134,4.114119 -3.02474,8.040687 -6.099406,9.07983 -2.101813,0.710351 -4.255823,0.419229 -6.405345,-0.865702 z M 33.065799,47.223825 c 0,-0.201777 0.165157,-0.366866 0.36719,-0.366866 0.201957,0 0.270766,0.165089 0.152846,0.366866 -0.117807,0.201775 -0.283116,0.366863 -0.367209,0.366863 -0.08409,0 -0.152846,-0.165088 -0.152827,-0.366863 z m 12.632773,-1.794119 c -3.096893,-1.488312 -6.045008,-5.2843 -6.045008,-7.783543 0,-0.749644 0.319102,-2.245289 0.709134,-3.323658 l 0.709114,-1.960674 2.671447,-0.01277 c 1.469291,-0.0071 3.685607,-0.144376 4.925156,-0.30525 1.986353,-0.257803 2.532273,-0.179891 4.601991,0.656758 1.291577,0.522096 2.656819,0.949262 3.033853,0.949262 0.844384,0 0.870123,0.675987 0.126709,3.326911 -2.055247,7.329375 -6.229463,10.617017 -10.732457,8.452961 z m 82.437198,-1.724198 c -3.53871,-1.865852 -5.10587,-4.856623 -5.38767,-10.281894 l -0.19281,-3.711429 1.80081,-0.225677 c 0.99057,-0.124122 1.85082,-0.384501 1.91206,-0.578619 0.0606,-0.194116 0.33959,-0.260214 0.61858,-0.146886 0.27917,0.113339 1.71236,0.008 3.18482,-0.233883 2.41599,-0.397002 2.94595,-0.365415 5.4297,0.323631 1.51388,0.419963 3.12842,0.763572 3.58796,0.763572 0.81897,0 0.8309,0.04541 0.59927,2.292904 -0.28751,2.788604 -1.09833,6.302146 -1.77317,7.682938 -0.85647,1.752416 -2.67577,3.685634 -4.12326,4.381412 -1.9229,0.924296 -3.54334,0.848073 -5.6564,-0.266069 z m 12.49731,-12.449517 c 0.0739,-2.553711 0.18561,-3.106686 0.61063,-3.013749 0.39528,0.08649 0.50532,0.595145 0.45854,2.118691 -0.0587,1.902718 -0.57161,4.02263 -0.97409,4.02263 -0.10227,0 -0.14584,-1.407406 -0.0947,-3.127572 z m -19.64546,-2.73131 c -0.77181,-0.310456 -0.84245,-0.473796 -0.55305,-1.278773 0.18183,-0.507572 0.23581,-2.236895 0.11932,-3.842943 -0.34073,-4.673947 0.50816,-5.970504 4.23109,-6.462667 1.12258,-0.148417 2.51588,-0.576098 3.09598,-0.9504 1.37106,-0.884655 2.65739,-0.862455 4.39569,0.07587 1.16349,0.628021 1.77506,0.718568 3.54012,0.524183 2.9346,-0.323168 3.39861,0.0921 3.74027,3.347126 0.14584,1.387867 0.27293,3.885378 0.28259,5.550028 l 0.0177,3.026632 h -1.03621 c -0.56991,0 -2.17104,-0.329385 -3.5579,-0.731972 -2.40624,-0.698484 -2.65623,-0.705414 -5.46479,-0.151468 -2.43481,0.480245 -5.07882,0.90249 -7.5147,1.20011 -0.22595,0.02759 -0.80893,-0.109968 -1.2955,-0.30572 z m 182.17637,70.891273 c 0,-0.43072 -0.22198,-1.90826 -0.49339,-3.28343 -1.22031,-6.18336 -1.83529,-25.297498 -0.93602,-29.098013 0.72029,-3.04408 2.04498,-5.769511 3.29451,-6.777932 0.61536,-0.496615 1.92972,-1.086944 2.92081,-1.311843 2.36946,-0.537674 2.40275,-1.259324 0.0436,-0.963797 -3.25037,0.407322 -5.2732,2.509461 -6.6533,6.914176 -1.58737,5.065985 -1.08299,24.863139 0.83961,32.956029 0.44907,1.89034 0.98336,2.740566 0.98336,1.56481 z m -129.03557,-0.31609 c 0.66006,-0.79016 0.22652,-2.34932 -0.65324,-2.34932 -0.9436,0 -1.64116,1.60039 -1.0347,2.37376 0.55059,0.70188 1.08773,0.6941 1.68794,-0.0245 z m -0.83677,-1.13091 c 0.19735,-0.54416 0.28429,-0.56287 0.54471,-0.11722 0.19698,0.33711 0.16289,0.62685 -0.0947,0.79522 -0.55437,0.36253 -0.73033,0.097 -0.44926,-0.678 z M 50.922109,49.791875 c 0.598353,-0.660829 1.351598,-1.10114 1.885157,-1.101965 1.423721,-0.0022 3.078305,-1.285207 3.410295,-2.644422 0.241807,-0.990069 0.64504,-1.384404 2.249671,-2.200036 1.075225,-0.546562 2.225926,-1.43115 2.556979,-1.965749 0.560624,-0.905395 0.564981,-1.159142 0.0625,-3.703078 -0.536192,-2.714891 -0.534488,-2.73858 0.282206,-3.995802 0.451909,-0.695595 1.211593,-1.865569 1.688503,-2.59994 1.109317,-1.708881 1.113863,-3.534139 0.01316,-5.451773 -2.067967,-3.60295 -2.003609,-3.354679 -1.571833,-6.063089 0.493766,-3.096721 0.0644,-4.273701 -2.470555,-6.783155 -2.455995,-2.430752 -4.231112,-3.169597 -7.295992,-3.036769 -1.60547,0.06957 -2.53909,0.270529 -2.631561,0.566416 -0.107011,0.342467 0.593031,0.458581 2.764849,0.458581 2.596391,0 3.073945,0.111228 4.454407,1.037546 0.850407,0.57065 2.214379,1.840716 3.031035,2.82237 l 1.484897,1.784825 -0.232772,3.356294 -0.232773,3.356297 1.257049,1.933519 c 1.925878,2.962373 1.754035,4.392101 -0.924084,7.688733 -1.096627,1.350021 -1.071626,0.90594 -0.374633,6.643177 l 0.201521,1.658213 -2.636875,1.397585 c -2.363378,1.252616 -2.636887,1.506559 -2.636887,2.448209 0,1.273394 -1.09318,2.192826 -2.607215,2.192826 -0.77709,0 -1.414005,0.377067 -2.349921,1.391209 -0.706159,0.765166 -1.283906,1.508067 -1.283906,1.650891 0,0.61164 0.985071,0.177258 1.906988,-0.840913 z M 33.759251,44.217266 c 0,-0.241181 -0.39721,-0.877185 -0.88268,-1.413343 -0.787072,-0.869249 -0.836903,-1.081179 -0.459921,-1.956628 0.353023,-0.819774 0.289555,-1.578952 -0.384558,-4.600431 l -0.807338,-3.618634 0.744495,-1.231803 c 1.699999,-2.812693 1.888074,-3.613936 1.666911,-7.101641 -0.175195,-2.76238 -0.10417,-3.541515 0.434617,-4.769239 0.840009,-1.914212 2.591003,-3.580901 4.568509,-4.348524 1.202635,-0.466837 1.773734,-0.968841 2.361895,-2.076113 0.449769,-0.846721 1.122329,-1.55244 1.600565,-1.67944 0.925523,-0.245788 4.503501,0.540869 7.594498,1.669741 2.371686,0.866168 2.979951,0.925259 2.978551,0.289354 -9.01e-4,-0.473566 -4.976,-2.185282 -8.216861,-2.827137 -2.33404,-0.46226 -3.446804,-0.02119 -4.784284,1.896337 -0.636972,0.913219 -1.590413,1.720384 -2.459682,2.08234 -1.805931,0.751986 -2.525891,1.345477 -3.797007,3.130072 -0.986169,1.384554 -1.031019,1.619149 -1.19788,6.265745 -0.161369,4.492056 -0.236126,4.9145 -1.076968,6.082314 -1.364231,1.894717 -1.443703,2.579198 -0.671178,5.780664 0.782337,3.24202 0.885238,4.670134 0.361244,5.012793 -0.661841,0.432794 -0.340599,1.513226 0.796636,2.679517 1.220987,1.252181 1.630433,1.436518 1.630436,0.734056 z" id="path170"/> </g> </svg>